<svg
   xmlns:dc="http://purl.org/dc/elements/1.1/"
   xmlns:cc="http://creativecommons.org/ns#"
   xmlns:rdf="http://www.w3.org/1999/02/22-rdf-syntax-ns#"
   xmlns:svg="http://www.w3.org/2000/svg"
   xmlns="http://www.w3.org/2000/svg"
   xmlns:sodipodi="http://sodipodi.sourceforge.net/DTD/sodipodi-0.dtd"
   xmlns:inkscape="http://www.inkscape.org/namespaces/inkscape"
   viewBox="0 0 429.99999 410"
   height="410"
   width="430"
   xml:space="preserve"
   id="svg2"
   version="1.1"
   sodipodi:docname="Coat_of_arms_of_the_University_of_Miskolc.svg"
   inkscape:version="0.92.3 (2405546, 2018-03-11)"><sodipodi:namedview
     pagecolor="#ffffff"
     bordercolor="#666666"
     borderopacity="1"
     objecttolerance="10"
     gridtolerance="10"
     guidetolerance="10"
     inkscape:pageopacity="0"
     inkscape:pageshadow="2"
     inkscape:window-width="1280"
     inkscape:window-height="961"
     id="namedview835"
     showgrid="false"
     inkscape:zoom="0.73940775"
     inkscape:cx="561.26001"
     inkscape:cy="396.85333"
     inkscape:window-x="-8"
     inkscape:window-y="-8"
     inkscape:window-maximized="1"
     inkscape:current-layer="svg2" /><metadata
     id="metadata8"><rdf:RDF><cc:Work
         rdf:about=""><dc:format>image/svg+xml</dc:format><dc:type
           rdf:resource="http://purl.org/dc/dcmitype/StillImage" /><dc:title></dc:title></cc:Work></rdf:RDF></metadata><defs
     id="defs6"><clipPath
       id="clipPath18"
       clipPathUnits="userSpaceOnUse"><path
         id="path16"
         d="M 0,595.28 H 841.89 V 0 H 0 Z"
         inkscape:connector-curvature="0" /></clipPath></defs><g
     transform="matrix(1.3333333,0,0,-1.3333333,-346.22304,602.04559)"
     id="g10"><g
       id="g12"><g
         clip-path="url(#clipPath18)"
         id="g14"><path
           id="path20"
           style="fill:#003c66;fill-opacity:1;fill-rule:nonzero;stroke:none"
           d="m 439.424,287.064 h -2.64 v -15.342 h 2.64 z m -80.89,-37.882 c 16.236,-16.02 36.601,-29.326 60.529,-39.556 l 1.251,-0.513 1.281,0.52 c 23.906,10.22 44.259,23.527 60.507,39.549 13.063,12.887 23.481,27.517 30.974,43.481 12.764,27.185 12.665,48.776 12.656,49.67 V 449.23 l -210.831,0.008 V 342.376 c -0.012,-0.905 -0.127,-22.469 12.661,-49.713 7.506,-15.976 17.922,-30.608 30.972,-43.481 m 61.784,-33.825 c -19.595,8.496 -35.246,18.515 -47.755,28.983 6.375,4.694 25.797,17.493 48.028,17.521 21.936,-0.028 41.076,-12.437 47.738,-17.302 -12.558,-10.548 -28.282,-20.652 -48.011,-29.202 m -11.094,89.083 v -6.505 h 0.013 v -1.195 h 2.074 v -2.169 h -1.857 v -6.315 l -0.117,0.382 -4.125,0.637 v 3.812 c 1.125,0.17 2.008,1.103 2.008,2.278 v 3.376 c 0,1.202 -0.918,2.159 -2.082,2.295 v 3.404 z m -4.086,2.745 v 1.88 h 5.13 l -0.922,-1.88 z m 2.082,-21.02 1.485,-4.837 4.181,-3.882 6.99,-2.24 3.347,5.337 h 7.457 v 12.475 h 22.136 v -32.835 c -8.769,3.915 -19.573,7.232 -31.334,7.407 v 0.039 h -0.822 c -0.022,0 -0.048,-0.002 -0.069,-0.002 -0.022,0 -0.048,0.002 -0.07,0.002 h -0.817 v -0.039 c -15.635,-0.229 -29.602,-5.986 -39.29,-11.353 v 36.781 h 22.045 v -6.116 z m 47.232,9.604 h -26.265 v 2.57 h 26.265 z m -23.897,17.594 h 22.027 V 301.09 h -21.975 z m 21.862,2.744 h -21.862 l -2.472,3.574 h 5.653 l 3.879,-3.205 2.501,3.205 h 2.545 l 2.575,-3.135 4.212,3.135 h 5.857 z m -50.569,0 h -21.866 l -2.468,3.574 h 5.649 l 3.878,-3.205 2.502,3.205 h 2.545 l 2.576,-3.135 4.211,3.135 h 5.856 z m 0.546,-2.744 V 301.09 h -22.062 l -0.065,12.273 z m -24.183,-15.024 h 26.26 v -2.57 h -26.26 z m 81.301,6.099 v -6.528 h 0.017 v -1.191 h 2.069 v -2.185 h -1.853 v -37.756 c -1.32,0.712 -2.718,1.424 -4.181,2.129 v 34.255 c 0.94,0.309 1.631,1.163 1.631,2.203 v 3.376 c 0,1.124 -0.808,2.021 -1.86,2.252 v 3.445 z m -4.177,2.751 v 1.876 h 5.454 l -1.152,-1.876 z M 320.669,443.473 519.967,443.458 V 342.302 c 0,-0.208 0.092,-21.207 -12.115,-47.185 -6.459,-13.754 -17.252,-30.57 -35.079,-46.665 -1.973,1.506 -5.544,4.047 -10.283,6.791 v 36.586 c 1.052,0.193 1.852,1.123 1.852,2.232 v 3.127 c 0,1.183 -0.922,2.129 -2.082,2.229 v 6.807 l 3.415,5.73 h -10.34 v 3.383 l 5.735,7.021 h -12.518 l -2.852,-2.045 -1.745,2.045 h -5.182 l -1.587,-1.974 -2.506,1.974 h -11.856 l 4.973,-7.119 0.064,-14.149 h -0.076 c -1.295,0 -2.346,-1.054 -2.346,-2.349 v -3.376 c 0,-1.294 1.051,-2.347 2.346,-2.347 h 0.151 v -9.737 h -6.233 l -3.008,-4.79 -4.376,1.368 -2.121,1.972 v 10.023 c 1.061,0.196 1.861,1.126 1.861,2.232 v 3.125 c 0,1.187 -0.922,2.133 -2.086,2.232 v 6.878 l 2.64,5.633 h -9.475 v 3.846 l 5.359,6.558 h -12.518 l -2.848,-2.045 -1.744,2.045 h -5.182 l -1.593,-1.974 -2.506,1.974 h -11.851 l 5.259,-7.526 0.074,-13.788 c -1.182,-0.116 -2.125,-1.086 -2.125,-2.303 v -3.376 c 0,-1.242 0.982,-2.241 2.203,-2.319 v -38.385 c -4.467,-2.65 -7.769,-5.053 -9.553,-6.43 -17.902,16.098 -28.754,32.927 -35.238,46.686 -12.106,25.678 -12.206,46.535 -12.206,47.416 z m 73.233,-134.975 c 0,1.197 -1.156,2.164 -2.576,2.164 -1.419,0 -2.571,-0.967 -2.571,-2.164 v -4.783 h 5.147 z m 52.889,-21.434 h -2.645 v -15.342 h 2.645 z m -52.759,-15.342 h 2.64 v 15.342 h -2.64 z m -7.367,0 h 2.64 v 15.342 h -2.64 z m 55.04,38.94 c -1.42,0 -2.571,-0.967 -2.571,-2.164 v -4.783 h 5.145 v 4.783 c 0,1.197 -1.15,2.164 -2.574,2.164 m -89.542,5.32 2.722,-6.19 2.727,6.19 6.731,-0.734 -3.999,5.46 3.999,5.45 -6.731,-0.722 -2.727,6.184 -2.722,-6.184 -6.72,0.722 3.993,-5.45 -3.993,-5.46 z m -2.299,7.633 3.571,-0.389 1.45,3.288 1.463,-3.288 3.571,0.389 -2.129,-2.907 2.129,-2.913 -3.571,0.399 -1.463,-3.295 -1.45,3.295 -3.571,-0.399 2.121,2.913 z m 132.202,5.46 -2.522,-0.961 2.522,-0.965 c 2.741,-1.043 4.573,-3.697 4.573,-6.614 0,-2.917 -1.832,-5.577 -4.573,-6.616 l -2.522,-0.963 2.522,-0.963 c 1.053,-0.397 2.148,-0.601 3.239,-0.601 5.043,0 9.15,4.098 9.15,9.143 0,5.043 -4.107,9.145 -9.15,9.145 -1.091,0 -2.186,-0.206 -3.239,-0.605 m 10.332,-8.54 c 0,-3.904 -3.175,-7.079 -7.08,-7.085 2.086,1.716 3.38,4.307 3.38,7.085 0,2.778 -1.294,5.374 -3.38,7.077 3.905,0 7.08,-3.174 7.08,-7.077 M 328.391,182.496 c -0.004,-1.128 -0.547,-1.39 -1.266,-1.023 -0.72,0.364 -1.259,1.178 -1.259,2.31 0.004,4.92 0.004,7.648 0.008,12.321 -0.82,0.439 -1.231,0.661 -2.047,1.116 v -12.586 c 0,-2.113 1.474,-4.476 3.298,-5.398 1.82,-0.92 3.316,-0.053 3.32,2.037 0.009,4.967 0.013,7.715 0.022,12.461 -0.825,0.41 -1.236,0.616 -2.056,1.041 -0.011,-4.668 -0.011,-7.377 -0.02,-12.279 m 9.07,-1.623 c -0.017,0.006 -0.021,0.008 -0.039,0.016 -1.24,4.419 -1.858,6.736 -3.101,10.995 -0.794,0.372 -1.192,0.56 -1.986,0.942 -0.018,-6.114 -0.027,-9.843 -0.039,-15.959 0.824,-0.381 1.238,-0.564 2.06,-0.93 0.015,3.669 0.019,5.7 0.028,9.593 0.017,-0.009 0.026,-0.01 0.043,-0.016 1.253,-4.473 1.881,-6.771 3.14,-10.968 0.782,-0.327 1.171,-0.487 1.952,-0.807 0.022,6.095 0.035,9.722 0.057,15.815 -0.833,0.354 -1.251,0.532 -2.084,0.897 -0.013,-3.675 -0.018,-5.698 -0.031,-9.578 m 4.004,-7.906 c 0.833,-0.326 1.251,-0.488 2.089,-0.803 0.021,6.086 0.034,9.658 0.056,15.742 -0.838,0.327 -1.253,0.496 -2.086,0.836 -0.022,-6.088 -0.035,-9.684 -0.059,-15.775 m 7.348,2.012 c -0.018,0.003 -0.026,0.007 -0.043,0.011 -0.65,4.636 -0.975,7.082 -1.623,11.571 -0.892,0.327 -1.338,0.496 -2.221,0.835 1.166,-6.538 1.751,-10.291 2.922,-16.782 0.739,-0.257 1.108,-0.381 1.856,-0.628 1.225,5.671 1.836,8.944 3.065,14.617 -0.892,0.293 -1.338,0.444 -2.229,0.752 -0.693,-4.005 -1.035,-6.201 -1.727,-10.376 m 5.168,-6.364 c 2.523,-0.77 3.783,-1.13 6.315,-1.805 0.004,0.868 0.004,1.311 0.009,2.194 -1.684,0.45 -2.524,0.686 -4.199,1.176 0.004,1.813 0.009,2.737 0.013,4.584 1.459,-0.438 2.19,-0.646 3.653,-1.049 0,0.847 0,1.271 0.005,2.117 -1.459,0.405 -2.195,0.613 -3.649,1.052 0.004,1.846 0.004,2.775 0.012,4.587 1.676,-0.514 2.515,-0.757 4.191,-1.226 0.004,0.831 0.004,1.242 0.008,2.061 -2.528,0.706 -3.792,1.083 -6.302,1.886 -0.021,-6.068 -0.03,-9.504 -0.056,-15.577 m 14.889,7.031 c 0.009,3 -1.224,4.768 -3.744,5.395 -1.367,0.34 -2.051,0.521 -3.415,0.889 -0.017,-6.065 -0.021,-9.413 -0.039,-15.48 0.849,-0.221 1.277,-0.327 2.126,-0.534 0.008,2.59 0.008,3.923 0.017,6.585 0.511,-0.125 0.762,-0.189 1.273,-0.313 0.783,-2.851 1.181,-4.273 1.965,-7.046 0.908,-0.205 1.359,-0.309 2.263,-0.502 -0.917,2.97 -1.372,4.499 -2.289,7.546 1.363,0.471 1.839,1.681 1.843,3.46 m -3.843,-1.476 c -0.489,0.119 -0.723,0.179 -1.208,0.302 0.004,1.944 0.004,2.919 0.009,4.837 0.446,-0.116 0.662,-0.171 1.108,-0.282 1.558,-0.391 1.809,-1.28 1.805,-2.843 -0.004,-1.546 -0.234,-2.377 -1.714,-2.014 m 8.916,5.032 c -2.449,0.486 -3.657,-1.098 -3.666,-3.438 0,-1.929 0.481,-3.304 2.32,-4.456 0.615,-0.385 0.914,-0.577 1.528,-0.957 1.048,-0.635 1.234,-0.927 1.234,-2.567 0,-1.405 -0.108,-2.275 -1.559,-1.998 -1.086,0.21 -1.497,1.068 -1.497,1.868 v 0.695 c -0.861,0.171 -1.286,0.259 -2.143,0.441 v -0.821 c 0,-2.078 1.563,-3.973 3.64,-4.37 2.771,-0.533 3.702,1.226 3.702,3.821 0,2.246 -0.36,3.534 -2.247,4.625 -0.649,0.393 -0.978,0.592 -1.627,0.989 -1.117,0.678 -1.221,1.111 -1.217,2.3 0,1.024 0.273,1.93 1.45,1.697 1.082,-0.217 1.502,-1.132 1.502,-2.147 v -0.494 c 0.857,-0.161 1.281,-0.244 2.143,-0.395 v 1.08 c 0,1.705 -1.433,3.705 -3.563,4.127 m 5.216,-16.431 c 0.857,-0.142 1.282,-0.209 2.143,-0.343 v 15.338 c -0.857,0.135 -1.282,0.205 -2.138,0.349 0,-6.094 0,-9.247 -0.005,-15.344 m 10.263,13.888 c -2.848,0.333 -4.268,0.523 -7.108,0.952 0,-0.824 -0.004,-1.234 -0.004,-2.059 0.996,-0.153 1.494,-0.231 2.485,-0.366 v -13.268 c 0.857,-0.116 1.285,-0.173 2.142,-0.28 v 13.258 c 0.996,-0.128 1.489,-0.187 2.485,-0.306 z m 2.168,-0.247 c -1.341,-5.979 -2.008,-8.973 -3.345,-14.936 0.861,-0.107 1.289,-0.163 2.142,-0.261 0.251,1.288 0.381,1.935 0.636,3.223 1.169,-0.131 1.753,-0.193 2.922,-0.31 0.256,-1.34 0.381,-2.013 0.632,-3.354 0.866,-0.085 1.29,-0.126 2.156,-0.204 -1.342,6.251 -2.013,9.386 -3.355,15.651 -0.714,0.072 -1.074,0.113 -1.788,0.191 m -0.195,-9.943 c 0.429,2.175 0.637,3.26 1.061,5.435 0.013,0 0.026,-0.002 0.039,-0.002 0.424,-2.268 0.637,-3.398 1.056,-5.662 -0.861,0.087 -1.294,0.132 -2.156,0.229 m 13.358,4.423 c 0,0.428 -0.004,0.642 -0.004,1.073 0,1.703 -1.433,3.548 -3.588,3.703 -2.463,0.18 -3.688,-1.58 -3.688,-3.904 0,-1.913 0.484,-3.211 2.342,-4.132 0.614,-0.307 0.925,-0.459 1.54,-0.762 1.056,-0.506 1.243,-0.771 1.243,-2.409 0,-1.399 -0.109,-2.273 -1.559,-2.168 -1.103,0.08 -1.519,0.888 -1.519,1.685 0,0.276 -0.004,0.413 -0.004,0.689 -0.857,0.067 -1.286,0.103 -2.147,0.179 v -0.822 c 0,-2.064 1.58,-3.783 3.67,-3.934 2.779,-0.203 3.71,1.672 3.71,4.256 0,2.241 -0.351,3.476 -2.255,4.339 -0.658,0.31 -0.987,0.468 -1.649,0.782 -1.113,0.537 -1.226,0.96 -1.226,2.143 0,1.012 0.277,1.954 1.459,1.866 1.095,-0.078 1.52,-0.946 1.52,-1.956 v -0.499 c 0.861,-0.056 1.294,-0.08 2.155,-0.129 m 10.419,-4.113 c -0.018,0 -0.027,0.003 -0.044,0.003 -1.104,3.268 -1.658,4.904 -2.766,8.18 -0.831,0.026 -1.242,0.037 -2.069,0.072 v -15.33 c 0.862,-0.032 1.29,-0.043 2.152,-0.068 v 9.318 c 0.021,0 0.025,-0.002 0.047,-0.002 0.844,-2.66 1.268,-3.989 2.117,-6.639 0.424,-0.011 0.641,-0.014 1.069,-0.022 0.852,2.621 1.286,3.929 2.138,6.556 h 0.044 v -9.322 c 0.861,-0.008 1.294,-0.008 2.159,-0.008 v 15.329 c -0.839,0 -1.259,0 -2.095,0.008 -1.103,-3.236 -1.649,-4.852 -2.752,-8.075 m 9.101,8.095 c -0.864,-0.014 -1.298,-0.02 -2.16,-0.028 v -15.323 c 0.862,0.004 1.296,0.008 2.16,0.024 z m 5.347,-15.325 c 2.782,0.101 3.714,2.075 3.714,4.657 0,2.242 -0.352,3.441 -2.26,4.098 -0.658,0.239 -0.987,0.358 -1.649,0.603 -1.116,0.413 -1.221,0.822 -1.221,2.004 0,1.018 0.276,1.988 1.455,2.032 1.099,0.039 1.529,-0.783 1.529,-1.794 v -0.496 c 0.855,0.035 1.289,0.059 2.146,0.1 v 1.073 c 0,1.705 -1.434,3.389 -3.589,3.312 -2.472,-0.086 -3.696,-1.979 -3.696,-4.303 0,-1.913 0.489,-3.16 2.346,-3.878 0.623,-0.241 0.925,-0.356 1.544,-0.593 1.053,-0.391 1.249,-0.64 1.249,-2.275 0,-1.398 -0.114,-2.287 -1.568,-2.34 -1.1,-0.036 -1.518,0.725 -1.518,1.521 0,0.274 0.003,0.415 0.003,0.689 -0.867,-0.022 -1.298,-0.034 -2.164,-0.054 v -0.82 c 0,-2.064 1.593,-3.607 3.679,-3.536 m 7.484,5.085 c 0.462,0.916 0.697,1.378 1.16,2.298 0.978,-2.655 1.47,-3.984 2.445,-6.627 0.914,0.071 1.368,0.107 2.277,0.187 -1.39,3.554 -2.082,5.339 -3.476,8.915 1.17,2.538 1.754,3.816 2.931,6.365 -0.866,-0.072 -1.291,-0.109 -2.156,-0.171 -1.26,-2.894 -1.883,-4.336 -3.139,-7.218 h -0.042 v 6.995 c -0.862,-0.057 -1.29,-0.08 -2.152,-0.128 v -15.329 c 0.862,0.051 1.29,0.071 2.152,0.127 z m 10.059,-3.88 c 1.748,0.181 3.601,1.645 3.601,4.143 v 8.091 c 0,2.498 -1.853,3.533 -3.601,3.353 -1.745,-0.18 -3.6,-1.591 -3.6,-4.091 v -8.091 c 0,-2.498 1.855,-3.585 3.6,-3.405 m -1.45,11.695 c 0,1.057 0.676,1.615 1.45,1.696 0.778,0.08 1.454,-0.34 1.454,-1.397 v -8.094 c 0,-1.055 -0.676,-1.619 -1.454,-1.697 -0.774,-0.082 -1.45,0.348 -1.45,1.403 z m 13.34,-7.842 c -1.698,-0.271 -2.549,-0.397 -4.246,-0.624 v 13.122 c -0.857,-0.113 -1.286,-0.167 -2.143,-0.273 v -15.327 c 2.554,0.316 3.835,0.496 6.389,0.903 z m 4.778,-1.492 c 1.909,0.356 3.403,2.313 3.407,4.187 0,0.373 -0.004,0.557 0,0.932 -0.857,-0.171 -1.281,-0.255 -2.142,-0.418 v -0.749 c 0,-1.201 -0.754,-1.676 -1.343,-1.785 -0.964,-0.178 -1.298,0.448 -1.293,1.326 0,3.12 0.004,4.675 0.004,7.794 0.004,1.023 0.255,1.817 1.32,1.997 0.821,0.141 1.329,-0.491 1.323,-1.347 v -0.728 c 0.859,0.155 1.288,0.24 2.144,0.405 v 0.846 c 0.004,2.111 -1.467,3.345 -3.44,3.01 -2.079,-0.35 -3.485,-2.086 -3.491,-4.084 v -8.407 c -0.004,-2.789 1.88,-3.285 3.511,-2.979 m 7.372,16.737 c -0.853,-0.178 -1.282,-0.269 -2.139,-0.436 -0.012,-6.045 -0.017,-9.074 -0.029,-15.121 0.852,0.184 1.276,0.279 2.124,0.475 0.018,6.03 0.023,9.054 0.044,15.082 m 17.223,-7.66 c -1.662,-0.541 -2.502,-0.8 -4.177,-1.3 0.008,1.737 0.008,2.605 0.022,4.347 1.458,0.424 2.189,0.653 3.644,1.114 0.004,0.793 0.009,1.191 0.013,1.987 -1.459,-0.458 -2.186,-0.681 -3.645,-1.103 0.009,1.739 0.009,2.611 0.022,4.35 1.679,0.476 2.519,0.726 4.19,1.248 0.004,0.797 0.008,1.197 0.013,1.992 -2.52,-0.784 -3.787,-1.146 -6.315,-1.823 -0.031,-5.942 -0.045,-8.916 -0.074,-14.86 2.524,0.728 3.783,1.113 6.298,1.936 0.004,0.847 0.009,1.267 0.009,2.112 m 3.431,7.87 c 0.018,0.005 0.027,0.003 0.043,0.012 1.265,-3.096 1.897,-4.629 3.157,-7.686 0.789,0.287 1.181,0.432 1.968,0.73 0.043,5.874 0.066,8.81 0.109,14.68 -0.844,-0.318 -1.264,-0.476 -2.099,-0.78 -0.03,-3.535 -0.039,-5.301 -0.064,-8.839 -0.018,-0.007 -0.028,-0.012 -0.044,-0.018 -1.241,3.073 -1.863,4.622 -3.113,7.737 -0.809,-0.271 -1.214,-0.405 -2.021,-0.664 -0.038,-5.889 -0.057,-8.838 -0.1,-14.732 0.845,0.283 1.265,0.427 2.114,0.721 0.021,3.531 0.034,5.306 0.05,8.839 m 10.207,-5.074 c 2.698,1.111 3.602,3.368 3.614,5.859 0.013,2.157 -0.317,3.171 -2.151,3.082 -0.636,-0.016 -0.957,-0.018 -1.588,-0.029 -1.078,-0.017 -1.177,0.331 -1.169,1.465 0.005,0.974 0.277,2.007 1.419,2.489 1.061,0.451 1.459,-0.176 1.452,-1.149 v -0.476 c 0.83,0.365 1.241,0.547 2.072,0.922 0.004,0.413 0.004,0.621 0.01,1.036 0.007,1.639 -1.356,2.697 -3.438,1.812 -2.385,-1.015 -3.584,-3.262 -3.597,-5.485 -0.017,-1.833 0.446,-2.856 2.238,-2.864 0.597,-0.003 0.896,-0.004 1.493,-0.003 1.019,0.02 1.19,-0.151 1.179,-1.725 -0.01,-1.341 -0.114,-2.236 -1.521,-2.818 -1.059,-0.441 -1.468,0.139 -1.462,0.903 0.004,0.264 0.004,0.392 0.008,0.658 -0.836,-0.337 -1.251,-0.502 -2.091,-0.827 0,-0.313 0,-0.469 -0.005,-0.784 -0.011,-1.979 1.52,-2.897 3.537,-2.066 m 7.34,18.249 c -0.826,-0.411 -1.232,-0.611 -2.054,-1.002 -0.036,-5.923 -0.048,-8.888 -0.086,-14.814 0.83,0.37 1.241,0.558 2.072,0.939 0.031,5.953 0.043,8.927 0.068,14.877 m 5.044,-12.574 c 2.657,1.312 3.536,3.694 3.536,6.28 0,2.243 -0.334,3.27 -2.138,3.027 -0.623,-0.074 -0.931,-0.105 -1.554,-0.173 -1.069,-0.113 -1.164,0.235 -1.16,1.397 0,0.994 0.268,2.076 1.386,2.683 1.043,0.57 1.441,-0.033 1.441,-1.033 v -0.494 c 0.805,0.447 1.216,0.675 2.025,1.14 v 1.072 c 0,1.703 -1.341,2.658 -3.377,1.529 -2.336,-1.296 -3.518,-3.702 -3.526,-5.966 -0.009,-1.866 0.448,-2.866 2.22,-2.723 0.584,0.046 0.874,0.072 1.463,0.124 1,0.099 1.181,-0.061 1.181,-1.684 -0.004,-1.383 -0.103,-2.316 -1.497,-3.013 -1.044,-0.523 -1.442,0.041 -1.442,0.822 v 0.676 c -0.822,-0.412 -1.233,-0.613 -2.051,-1.009 -0.004,-0.318 -0.004,-0.476 -0.004,-0.794 -0.01,-2.015 1.501,-2.843 3.497,-1.861 m 43.288,26.533 20.159,22.026 h -53.812 v -10.318 c -11.367,-15.101 -48.31,-31.128 -103.656,-31.128 -55.538,0 -92.555,16.137 -103.779,31.283 v 10.163 H 262.846 L 282.999,207.196 262,188.427 h 49.911 v -9.764 l 0.573,-0.68 c 12.89,-15.27 52.167,-31.703 107.943,-31.703 55.784,0 95.055,16.433 107.941,31.703 l 0.575,0.68 v 9.764 h 49.795 z M 311.787,193.284 h -37.059 l 15.179,13.566 -16.025,17.51 h 37.905 z M 524.083,180.457 C 511.318,166.21 473.826,151.14 420.427,151.14 c -53.405,0 -90.891,15.07 -103.658,29.317 v 31.115 c 15.425,-14.961 51.457,-28.656 103.658,-28.656 52.204,0 88.234,13.695 103.656,28.656 z m 4.86,43.903 h 37.912 l -16.023,-17.51 15.18,-13.566 H 528.943 Z M 393.322,397.274 c 0.216,0 0.324,0.181 0.359,0.476 0.078,0.584 0.55,1.753 1.207,2.19 0.884,0.584 2.412,0.659 3.429,0.659 h 9.462 c -5.039,-8.439 -9.709,-19.21 -10.731,-22.717 -0.186,-0.584 -0.259,-1.134 -0.259,-1.498 0,-0.327 0.108,-0.439 0.511,-0.439 1.644,0 4.601,1.496 4.601,2.233 0,0.472 -0.074,0.726 0,1.349 0.549,4.675 6.245,19.173 9.275,23.48 0.113,0.149 0.26,0.437 0.26,0.66 0,0.182 -0.19,0.289 -0.883,0.289 h -11.687 c -3.865,0 -4.709,0.366 -4.93,0.366 -0.216,0 -0.359,-0.144 -0.359,-0.508 0,-0.37 -0.55,-4.637 -0.55,-5.993 0,-0.366 0.039,-0.547 0.295,-0.547 m 28.598,-61.286 c 2.687,0 7.375,1.033 9.912,3.806 l 58.057,-0.029 v 94.98 h -39.177 c -3.138,1.292 -6.289,1.983 -9.398,1.983 -3.435,0 -6.483,-0.821 -9.171,-1.983 h -20.426 c -2.687,1.162 -5.735,1.983 -9.176,1.983 -3.103,0 -6.25,-0.691 -9.388,-1.983 h -39.22 v -94.98 l 58.07,0.029 c 2.277,-2.523 5.601,-3.806 9.917,-3.806 m 56.754,88.37 c 1.185,0.121 2.146,0.287 2.887,0.457 v -75.771 c -1.991,-1.111 -9.92,-4.458 -25.911,1.601 -18.343,8.755 -29.804,1.833 -33.739,-1.371 v 0.037 c -3.974,3.218 -15.427,10.058 -33.692,1.334 -15.994,-6.059 -23.924,-2.712 -25.911,-1.601 v 75.771 c 0.737,-0.17 1.698,-0.336 2.879,-0.457 v -73.446 c 4.874,-1.288 12.379,-1.281 23.702,2.958 l 0.1,0.046 c 21.291,10.07 32.039,-1.57 32.48,-2.07 l 0.407,-0.459 v -0.129 l 0.515,0.588 c 0.442,0.5 11.194,12.14 32.476,2.07 l 0.11,-0.046 c 11.317,-4.239 18.823,-4.246 23.697,-2.958 z m -0.134,7.643 -2.097,-1.669 c 0,-0.007 -1.847,-1.354 -6.149,-1.354 -3.81,0 -8.267,1.027 -13.274,3.023 z m -37.226,1.984 c 3.243,0 6.563,-0.818 9.874,-2.417 7.306,-3.543 13.734,-5.335 19.106,-5.335 2.515,0 4.367,0.389 5.644,0.835 v -73.842 c -4.247,-0.78 -10.842,-0.2 -19.915,3.196 -16.764,7.899 -27.835,3.043 -32.775,-0.338 v 68.61 c 2.498,2.915 8.964,9.291 18.066,9.291 m -14.087,-1.984 c -2.256,-1.585 -4.047,-3.262 -5.295,-4.623 -1.246,1.361 -3.038,3.038 -5.293,4.623 z m -24.686,1.984 c 8.964,0 15.383,-6.188 17.963,-9.163 V 356.16 c -4.99,3.374 -16.028,8.104 -32.662,0.262 -9.077,-3.396 -15.669,-3.976 -19.915,-3.196 v 73.842 c 1.272,-0.446 3.125,-0.835 5.644,-0.835 5.367,0 11.795,1.792 19.101,5.335 3.307,1.599 6.636,2.417 9.869,2.417 m -15.694,-1.984 c -5.009,-1.996 -9.467,-3.023 -13.276,-3.023 -4.306,0 -6.155,1.347 -6.159,1.354 l -2.091,1.669 z m -30.161,0 h 8.501 v -4.885 c -2.506,0.281 -3.644,0.798 -3.644,0.798 l -1.983,0.994 v -81.26 l 0.511,-0.407 c 0.346,-0.29 8.808,-6.877 29.178,0.856 l 0.099,0.044 c 21.015,10.069 31.624,-1.575 32.057,-2.072 l 0.471,-0.542 v -0.123 l 0.58,0.665 c 0.437,0.497 11.042,12.141 32.052,2.072 l 0.099,-0.044 c 20.373,-7.733 28.836,-1.146 29.191,-0.856 l 0.503,0.407 v 81.26 l -1.983,-0.994 c 0,0 -1.134,-0.517 -3.644,-0.798 v 4.885 h 8.467 v -89.49 l -56.643,0.03 -0.415,-0.554 c -1.519,-2.037 -5.347,-3.251 -8.163,-3.251 -3.775,0 -6.454,1.077 -8.194,3.284 l -0.411,0.521 -56.629,-0.03 z m 20.798,-34.435 c 0.147,0 0.325,0.074 0.511,0.147 0.801,0.327 3.545,1.75 4.237,1.75 0.541,0 0.541,-0.432 0.541,-1.313 v -4.781 l 0.044,-5.812 c 0.034,-3.504 -0.044,-6.606 -0.186,-8.213 -0.109,-1.17 -0.29,-1.678 -1.459,-1.938 -0.658,-0.144 -2.52,-0.255 -2.922,-0.255 -0.147,0 -0.294,-0.106 -0.294,-0.364 0,-0.255 0.225,-0.331 0.623,-0.331 2.338,0 5.402,0.11 6.246,0.11 0.987,0 3.32,-0.11 6.099,-0.11 0.402,0 0.584,0.076 0.584,0.331 0,0.258 -0.182,0.364 -0.333,0.364 -0.29,0 -1.862,0.111 -2.402,0.218 -1.178,0.256 -1.36,0.805 -1.463,1.975 -0.152,1.607 -0.152,4.709 -0.152,8.213 v 6.76 c 0,5.588 0.221,9.203 0.221,9.497 0,0.364 -0.108,0.764 -0.437,0.764 -0.29,0 -0.619,-0.256 -0.953,-0.476 -1.281,-0.946 -8.288,-5.548 -8.431,-5.621 -0.182,-0.11 -0.364,-0.292 -0.364,-0.512 0,-0.217 0.182,-0.403 0.29,-0.403 m 55.135,-20.742 c 0.845,-0.473 2.926,-0.879 5.52,-0.879 7.115,0 11.539,4.276 11.539,9.389 0,4.419 -3.805,6.575 -6.506,7.193 v 0.075 c 1.463,0.51 5.333,2.993 5.333,6.575 0,1.716 -1.28,5.401 -8.294,5.401 -3.025,0 -5.22,-0.764 -6.462,-1.313 -0.472,-0.222 -0.511,-0.367 -0.511,-0.698 0,-0.835 0.114,-2.48 0.26,-3.651 0.035,-0.399 0.139,-0.508 0.29,-0.508 0.183,0 0.333,0.109 0.333,0.549 0,2.151 2.186,3.87 5.078,3.87 3.722,0 4.852,-2.961 4.852,-4.493 0,-4.271 -4.022,-5.952 -5.666,-6.279 -0.399,-0.075 -0.658,-0.257 -0.658,-0.516 0,-0.289 0.225,-0.435 1.173,-0.617 1.791,-0.328 6.172,-2.045 6.172,-6.941 0,-4.34 -2.991,-6.244 -6.605,-6.244 -3.688,0 -5.485,2.52 -5.485,4.858 0,0.289 -0.108,0.508 -0.324,0.508 -0.224,0 -0.329,-0.253 -0.402,-0.691 -0.147,-0.805 -0.26,-2.848 -0.26,-4.563 0,-0.443 0.078,-0.733 0.623,-1.025 m 21.05,-0.22 c 0.908,-0.436 2.259,-0.659 3.427,-0.659 8.476,0 12.011,5.405 12.011,10.265 0,6.356 -6.643,9.35 -12.08,10.225 l 0.507,4.456 h 6.648 c 2.957,0 3.213,-0.953 3.213,-1.97 0,-0.297 0.068,-0.515 0.296,-0.515 0.252,0 0.361,0.218 0.391,0.44 0.368,2.301 0.481,3.907 0.481,4.674 0,0.547 -0.075,0.694 -0.368,0.694 -0.113,0 -0.325,-0.073 -0.732,-0.112 -0.395,-0.072 -1.018,-0.146 -2.039,-0.146 h -8.947 c -0.402,0 -0.663,-0.104 -0.696,-0.471 l -0.843,-9.646 c -0.031,-0.47 0.224,-0.657 0.662,-0.729 2.886,-0.403 9.236,-2.808 9.236,-8.651 0,-4.75 -3.1,-6.685 -6.025,-6.685 -2.558,0 -4.961,0.985 -4.961,4.893 0,0.401 -0.073,0.621 -0.332,0.621 -0.222,0 -0.334,-0.292 -0.399,-0.655 -0.181,-1.21 -0.152,-3.398 -0.152,-4.604 0,-0.767 0.078,-1.096 0.702,-1.425 m 21.338,-201.772 c 0.013,0.005 0.022,0.005 0.039,0.014 1.272,-3.143 1.913,-4.894 3.183,-7.999 0.791,0.297 1.189,0.441 1.986,0.749 0.038,5.963 0.064,8.946 0.099,14.907 -0.597,-0.213 -2.112,-0.687 -2.112,-0.687 -0.022,-3.592 -0.035,-5.493 -0.065,-9.085 -0.013,-0.008 -0.026,-0.01 -0.039,-0.017 -1.25,3.122 -1.879,4.885 -3.138,8.049 l -2.086,-0.564 v -15.014 l 2.073,0.549 c 0.026,3.593 0.033,5.51 0.06,9.098 M 279.683,332.278 c 0.258,-0.174 0.512,-0.335 0.773,-0.493 1.022,-0.644 1.903,-1.208 2.457,-2.097 0.108,-0.175 0.214,-0.36 0.324,-0.543 l 0.087,-0.156 c 0.242,-0.416 0.521,-0.901 0.868,-1.373 -0.446,-0.125 -0.847,-0.353 -1.193,-0.687 -1.446,-1.37 -1.039,-3.507 0.08,-4.818 0.271,-0.325 0.582,-0.578 0.886,-0.795 -0.645,0.038 -1.256,-0.058 -1.821,-0.254 -1.184,-0.412 -1.945,-1.26 -2.142,-2.388 -0.355,-1.997 1.195,-4.292 2.415,-5.282 0.457,-0.369 0.974,-0.706 1.587,-1.031 0.233,-0.123 0.461,-0.238 0.807,-0.407 1.08,-0.539 2.017,-1.004 2.666,-1.848 0.132,-0.165 0.26,-0.339 0.383,-0.52 l 0.091,-0.125 c 0.255,-0.353 0.5,-0.69 0.764,-1.004 -0.388,-0.16 -0.734,-0.404 -1.037,-0.728 -1.342,-1.475 -0.783,-3.573 0.426,-4.801 0.291,-0.304 0.62,-0.534 0.944,-0.728 -0.636,-0.016 -1.246,-0.144 -1.811,-0.385 -1.145,-0.489 -1.842,-1.392 -1.965,-2.532 -0.215,-2.011 1.495,-4.189 2.777,-5.096 0.486,-0.342 1.034,-0.639 1.653,-0.912 0.223,-0.106 0.446,-0.199 0.675,-0.295 l 0.162,-0.064 c 1.113,-0.461 2.078,-0.857 2.79,-1.649 0.162,-0.18 0.31,-0.364 0.521,-0.615 0.364,-0.444 0.767,-0.927 1.254,-1.364 -0.455,-0.225 -0.829,-0.558 -1.117,-0.991 -1.11,-1.654 -0.238,-3.648 1.145,-4.681 0.333,-0.255 0.692,-0.434 1.043,-0.576 -0.623,-0.111 -1.212,-0.333 -1.725,-0.654 -1.061,-0.665 -1.617,-1.66 -1.56,-2.802 0.101,-2.023 2.119,-3.915 3.516,-4.615 0.526,-0.256 1.111,-0.473 1.786,-0.655 0.29,-0.073 0.584,-0.151 0.904,-0.225 1.165,-0.287 2.176,-0.531 2.972,-1.198 0.212,-0.174 0.409,-0.347 0.615,-0.529 0.32,-0.286 0.671,-0.592 1.062,-0.884 -0.352,-0.241 -0.636,-0.557 -0.865,-0.949 -0.987,-1.726 0.021,-3.655 1.469,-4.59 0.351,-0.232 0.721,-0.387 1.08,-0.501 -0.614,-0.159 -1.184,-0.418 -1.671,-0.772 -1.004,-0.716 -1.504,-1.773 -1.37,-2.899 0.238,-2.022 2.379,-3.767 3.825,-4.368 0.532,-0.218 1.123,-0.39 1.826,-0.53 0.227,-0.046 0.45,-0.087 0.68,-0.126 l 0.205,-0.032 c 1.193,-0.204 2.219,-0.377 3.082,-0.996 0.199,-0.145 0.396,-0.297 0.641,-0.485 0.391,-0.302 0.781,-0.594 1.199,-0.852 -0.141,-0.171 -0.256,-0.361 -0.362,-0.565 -0.854,-1.792 0.286,-3.644 1.794,-4.472 0.375,-0.209 0.751,-0.339 1.12,-0.426 -0.607,-0.199 -1.159,-0.496 -1.624,-0.885 -0.961,-0.801 -1.372,-1.866 -1.153,-2.991 0.378,-1.998 2.636,-3.586 4.118,-4.082 0.556,-0.184 1.167,-0.315 1.863,-0.403 0.299,-0.035 0.598,-0.068 0.892,-0.097 1.205,-0.121 2.244,-0.223 3.153,-0.78 0.228,-0.135 0.446,-0.283 0.693,-0.45 0.521,-0.345 1.093,-0.716 1.735,-1.004 -0.32,-0.317 -0.555,-0.706 -0.701,-1.157 -0.61,-1.898 0.777,-3.575 2.387,-4.194 0.39,-0.149 0.775,-0.225 1.15,-0.268 -0.567,-0.273 -1.067,-0.645 -1.474,-1.098 -0.842,-0.924 -1.106,-2.031 -0.742,-3.115 0.644,-1.92 3.101,-3.191 4.644,-3.488 0.526,-0.094 1.084,-0.142 1.701,-0.142 h 0.186 c 0.312,0.005 0.617,0.013 0.941,0.028 0.351,0.014 0.691,0.024 1.02,0.024 0.946,0 1.573,-0.109 2.175,-0.373 0.18,-0.073 0.364,-0.164 0.552,-0.252 l 0.171,-0.087 c 0.363,-0.173 0.785,-0.376 1.24,-0.549 -0.18,-0.284 -0.301,-0.607 -0.377,-0.948 -0.42,-1.949 1.128,-3.481 2.794,-3.934 0.355,-0.097 0.743,-0.147 1.171,-0.15 -0.534,-0.33 -0.995,-0.749 -1.359,-1.239 -0.742,-1.009 -0.89,-2.135 -0.418,-3.177 0.834,-1.848 3.409,-2.867 4.969,-3.003 0.576,-0.043 1.199,-0.033 1.898,0.046 0.277,0.034 0.55,0.07 0.931,0.124 1.229,0.171 2.307,0.273 3.212,-0.026 0.207,-0.06 0.411,-0.134 0.623,-0.216 l 0.13,-0.046 c 0.614,-0.22 1.216,-0.423 1.852,-0.545 -0.138,-0.327 -0.212,-0.676 -0.225,-1.042 -0.061,-1.99 1.727,-3.222 3.441,-3.371 0.416,-0.047 0.814,-0.014 1.182,0.05 -0.463,-0.422 -0.844,-0.913 -1.117,-1.457 -0.554,-1.114 -0.502,-2.255 0.147,-3.209 0.991,-1.436 3.251,-2.093 4.926,-2.093 0.182,0 0.351,0.004 0.498,0.024 0.571,0.058 1.177,0.18 1.852,0.379 0.299,0.083 0.585,0.177 0.888,0.274 1.155,0.379 2.112,0.701 3.164,0.554 0.238,-0.031 0.472,-0.07 0.706,-0.109 0.428,-0.07 0.852,-0.136 1.315,-0.169 -0.086,-0.321 -0.108,-0.661 -0.082,-1.018 0.004,-0.058 0.043,-0.102 0.052,-0.157 0.125,-1.037 0.749,-2.324 1.203,-2.823 4.774,-1.065 29.749,-4.058 40.982,-4.058 l 0.008,0.798 h 0.031 l 0.012,0.475 c 0.005,0.082 -0.034,0.15 -0.034,0.231 l 0.008,0.781 h -0.125 c -0.061,0.507 -0.065,1.046 -0.225,1.481 -0.528,1.402 -1.623,2.288 -2.511,2.998 -0.199,0.165 -0.407,0.331 -0.597,0.49 -0.792,0.689 -1.203,1.65 -1.68,2.759 -0.116,0.282 -0.233,0.559 -0.363,0.838 -0.294,0.637 -0.597,1.182 -0.939,1.655 -0.87,1.212 -3.151,2.946 -5.125,2.709 -1.134,-0.125 -2.026,-0.838 -2.506,-1.989 -0.238,-0.57 -0.364,-1.182 -0.372,-1.81 -0.191,0.32 -0.429,0.637 -0.732,0.929 -1.342,1.283 -3.432,1.537 -4.7,0.463 l -0.225,0.22 c -0.139,0.137 -0.277,0.276 -0.407,0.412 -0.723,0.757 -1.061,1.802 -1.412,2.922 l -0.281,0.841 c -0.225,0.665 -0.485,1.238 -0.783,1.747 -0.749,1.276 -2.801,3.17 -4.844,3.186 -1.138,-0.028 -2.121,-0.664 -2.684,-1.753 -0.285,-0.534 -0.467,-1.133 -0.54,-1.764 -0.161,0.335 -0.364,0.68 -0.645,0.995 -1.251,1.448 -3.39,1.879 -4.753,0.817 -0.026,-0.02 -0.052,-0.04 -0.074,-0.059 -0.095,0.131 -0.186,0.26 -0.272,0.378 -0.628,0.861 -0.823,1.928 -1.026,3.059 -0.056,0.307 -0.113,0.603 -0.169,0.891 -0.13,0.656 -0.312,1.249 -0.554,1.829 -0.61,1.438 -2.385,3.563 -4.397,3.78 -1.143,0.123 -2.178,-0.382 -2.892,-1.395 -0.355,-0.5 -0.606,-1.064 -0.757,-1.677 -0.113,0.353 -0.277,0.718 -0.511,1.07 -1.074,1.611 -3.134,2.285 -4.597,1.417 -0.073,-0.041 -0.147,-0.084 -0.212,-0.132 -0.065,0.124 -0.13,0.247 -0.191,0.367 -0.458,0.944 -0.462,1.989 -0.471,3.197 0,0.292 -0.005,0.597 -0.009,0.904 -0.017,0.712 -0.091,1.33 -0.225,1.896 -0.346,1.521 -1.705,3.922 -3.662,4.497 -1.091,0.316 -2.216,-0.004 -3.082,-0.868 -0.433,-0.419 -0.788,-0.937 -1.043,-1.523 -0.056,0.371 -0.147,0.755 -0.316,1.14 -0.519,1.193 -1.722,2.401 -3.259,2.401 -0.346,0 -0.688,-0.063 -1.03,-0.182 -0.095,-0.046 -0.195,-0.082 -0.286,-0.128 -0.022,0.037 -0.035,0.074 -0.052,0.117 l -0.056,0.146 c -0.078,0.194 -0.165,0.382 -0.234,0.588 -0.368,0.987 -0.264,2.023 -0.139,3.291 0.027,0.28 0.057,0.554 0.074,0.83 0.052,0.685 0.044,1.327 -0.026,1.909 -0.195,1.551 -1.311,4.076 -3.194,4.841 -1.048,0.424 -2.205,0.222 -3.157,-0.547 -0.475,-0.379 -0.882,-0.863 -1.193,-1.414 -0.018,0.373 -0.069,0.768 -0.197,1.171 -0.418,1.313 -1.619,2.728 -3.285,2.728 -0.249,0 -0.5,-0.034 -0.747,-0.095 -0.113,-0.028 -0.223,-0.062 -0.329,-0.106 -0.026,0.115 -0.056,0.23 -0.082,0.334 l -0.057,0.212 c -0.049,0.188 -0.093,0.375 -0.136,0.556 -0.227,1.027 0.013,2.038 0.299,3.218 l 0.043,0.203 c 0.056,0.225 0.11,0.451 0.154,0.667 0.154,0.686 0.227,1.307 0.231,1.897 0.022,1.559 -0.744,4.213 -2.499,5.223 -0.992,0.565 -2.149,0.527 -3.206,-0.108 -0.525,-0.315 -0.986,-0.733 -1.37,-1.229 0.037,0.371 0.037,0.766 -0.034,1.173 -0.275,1.582 -1.491,3.181 -3.27,3.181 -0.128,0 -0.251,-0.008 -0.374,-0.021 -0.289,-0.033 -0.57,-0.107 -0.834,-0.221 -0.017,0.099 -0.03,0.199 -0.048,0.292 l -0.025,0.133 c -0.05,0.253 -0.098,0.512 -0.132,0.774 -0.158,1.022 0.149,2.006 0.504,3.143 l -0.453,0.139 0.5,-0.001 c 0.081,0.255 0.159,0.51 0.234,0.761 0.197,0.667 0.316,1.282 0.359,1.875 0.133,1.559 -0.443,4.262 -2.123,5.396 -0.939,0.633 -2.101,0.676 -3.209,0.115 -0.55,-0.28 -1.037,-0.663 -1.448,-1.129 0.061,0.366 0.091,0.759 0.048,1.176 -0.167,1.657 -1.364,3.413 -3.253,3.413 l -0.163,-0.005 c -0.097,-0.004 -0.199,-0.013 -0.294,-0.028 -0.017,0.218 -0.043,0.443 -0.071,0.679 -0.031,0.26 -0.061,0.521 -0.082,0.778 -0.081,1.033 0.289,1.993 0.735,3.144 0.115,0.279 0.221,0.563 0.321,0.844 0.251,0.66 0.413,1.264 0.495,1.843 0.234,1.546 -0.153,4.28 -1.753,5.526 -0.887,0.693 -2.058,0.818 -3.19,0.336 -0.565,-0.237 -1.077,-0.587 -1.521,-1.025 0.084,0.36 0.14,0.754 0.123,1.169 -0.056,1.706 -1.149,3.536 -3.131,3.63 l 0.012,0.362 c 0.009,0.171 0.018,0.341 0.031,0.512 0.08,1.043 0.597,1.937 1.195,2.976 l -0.414,0.238 0.474,-0.137 c 0.136,0.24 0.273,0.477 0.398,0.707 0.334,0.594 0.589,1.168 0.769,1.747 0.469,1.49 0.499,4.256 -0.89,5.728 -0.773,0.824 -1.909,1.123 -3.097,0.818 -0.597,-0.15 -1.158,-0.414 -1.667,-0.782 0.141,0.344 0.254,0.719 0.304,1.136 0.205,1.73 -0.632,3.744 -2.584,4.071 -0.069,0.018 -0.137,0.027 -0.206,0.032 0.022,0.191 0.043,0.379 0.065,0.568 0.021,0.265 0.054,0.519 0.093,0.77 0.154,1.039 0.732,1.898 1.415,2.908 0.167,0.247 0.342,0.5 0.5,0.755 0.383,0.585 0.671,1.139 0.888,1.683 0.569,1.452 0.798,4.207 -0.487,5.783 -0.726,0.876 -1.786,1.255 -3.037,1.029 -0.604,-0.112 -1.184,-0.336 -1.714,-0.667 0.162,0.335 0.308,0.708 0.385,1.118 0.329,1.711 -0.363,3.776 -2.292,4.242 -0.067,0.02 -0.131,0.032 -0.203,0.045 0.041,0.167 0.076,0.331 0.106,0.498 0.057,0.259 0.115,0.514 0.175,0.765 0.256,1.02 0.927,1.817 1.706,2.753 l 0.567,0.691 c 0.437,0.541 0.779,1.065 1.052,1.594 0.714,1.386 1.218,4.105 0.097,5.798 -0.632,0.947 -1.686,1.425 -2.917,1.329 -0.615,-0.049 -1.21,-0.212 -1.773,-0.49 0.195,0.319 0.375,0.673 0.491,1.067 0.496,1.669 0.018,3.795 -1.85,4.454 -1.145,0.415 -2.324,0.115 -3.406,-0.881 -0.067,-0.054 -0.137,-0.128 -0.217,-0.208 0.004,0.086 0.004,0.167 0.004,0.247 l -0.008,0.13 v 0.002 c -0.083,2.214 -1.316,4.55 -3.915,4.547 -0.308,-0.005 -0.637,-0.057 -0.935,-0.15 -2.448,-0.859 -2.885,-3.531 -2.247,-5.661 0.024,-0.067 0.05,-0.138 0.076,-0.212 -0.097,0.052 -0.184,0.097 -0.268,0.132 -1.342,0.611 -2.548,0.532 -3.508,-0.206 -1.574,-1.222 -1.381,-3.39 -0.403,-4.804 0.238,-0.351 0.515,-0.629 0.809,-0.88 -0.627,0.092 -1.257,0.07 -1.841,-0.068 -1.219,-0.292 -2.063,-1.055 -2.37,-2.16 -0.554,-1.95 0.759,-4.387 1.868,-5.497 0.406,-0.408 0.891,-0.795 1.475,-1.182 M 394.062,197.936 c 0.117,-0.061 0.238,-0.105 0.372,-0.127 0.766,-0.149 1.481,0.376 1.606,1.115 0.056,0.304 0.086,0.596 0.104,0.848 0.03,0.239 0.035,0.46 0.017,0.628 -0.008,0.534 -0.078,1.029 -0.203,1.48 -0.078,0.317 -0.208,0.638 -0.381,0.976 0.009,0.02 0.021,0.034 0.039,0.053 0.099,0.09 0.662,-0.019 1.013,-0.348 0.229,-0.216 0.415,-0.596 0.644,-1.072 0.148,-0.29 0.286,-0.574 0.459,-0.84 1.031,-1.649 2.342,-2.123 3.541,-1.384 1.554,0.943 1.069,2.758 0.892,3.427 l -0.04,0.176 c -0.147,0.536 -0.116,1.073 0.066,1.506 0.117,0.294 0.208,0.308 0.346,0.316 0.649,0 1.935,-0.814 2.497,-1.592 0.221,-0.313 0.437,-0.698 0.658,-1.179 0.078,-0.171 0.152,-0.343 0.225,-0.515 l 0.126,-0.283 c 0.554,-1.301 1.129,-2.641 2.398,-3.74 0.221,-0.188 0.446,-0.374 0.688,-0.567 0.71,-0.576 1.385,-1.123 1.636,-1.795 0.052,-0.144 0.039,-0.338 0.074,-0.498 -4.878,0.101 -12.605,0.839 -20.019,1.733 -0.251,0.118 -0.446,0.086 -0.571,0.08 -0.091,0.03 -0.178,0.069 -0.264,0.116 -0.511,0.308 -0.753,1.366 -0.62,2.274 0.061,0.107 0.226,0.445 0.901,0.445 0.489,0 1.034,-0.174 1.372,-0.338 0.087,-0.043 0.182,-0.099 0.342,-0.194 0.459,-0.267 1.194,-0.693 2.082,-0.701 m -17.768,7.851 0.039,-0.013 c 0.177,-0.076 0.359,-0.104 0.554,-0.113 0.619,-0.061 1.203,0.142 1.692,0.589 1.035,0.957 0.649,2.333 0.42,3.162 l -0.03,0.119 c -0.026,0.091 -0.052,0.173 -0.065,0.245 -0.044,0.259 -0.074,0.584 0.056,0.684 0.1,0.084 0.654,-0.076 0.974,-0.448 0.208,-0.236 0.355,-0.646 0.502,-1.041 0.126,-0.325 0.251,-0.646 0.407,-0.956 0.878,-1.741 2.138,-2.333 3.398,-1.72 1.627,0.784 1.329,2.637 1.216,3.336 l -0.03,0.176 c -0.087,0.541 -0.013,1.072 0.207,1.492 0.147,0.277 0.243,0.281 0.308,0.286 0.632,0 1.891,-0.955 2.402,-1.829 0.204,-0.344 0.381,-0.743 0.545,-1.229 0.074,-0.216 0.143,-0.435 0.217,-0.652 l 0.043,-0.145 c 0.411,-1.292 0.875,-2.746 2.047,-3.982 0.191,-0.199 0.399,-0.404 0.624,-0.623 0.368,-0.359 0.749,-0.735 1.038,-1.121 0.027,-0.165 0.061,-0.333 0.105,-0.519 0.025,-0.085 0.056,-0.179 0.094,-0.277 -0.073,0.036 -0.142,0.073 -0.211,0.105 -0.844,0.408 -1.736,0.625 -2.589,0.625 -1.541,0 -2.735,-0.707 -3.372,-1.999 -0.238,-0.5 -0.276,-0.9 -0.276,-0.9 -0.122,-0.883 0.064,-1.669 0.519,-2.324 -4.865,0.627 -9.28,1.279 -12.301,1.811 -0.356,0.486 -0.593,0.87 -0.624,0.994 -0.017,0.159 0.281,0.387 0.463,0.5 0.061,0.043 0.143,0.08 0.238,0.129 l 0.122,0.063 c 0.748,0.396 2.003,1.06 1.995,2.456 -0.013,1.918 -1.978,2.308 -2.814,2.477 -0.099,0.017 -0.19,0.033 -0.272,0.055 -0.649,0.182 -1.836,0.762 -1.645,1.589 0.004,0.014 0.026,0.061 0.047,0.098 0.1,0.159 0.286,0.372 0.762,0.372 0.529,0 1.143,-0.265 1.515,-0.485 0.096,-0.057 0.191,-0.126 0.303,-0.211 0.286,-0.205 0.801,-0.581 1.377,-0.776 m -15.457,9.161 c 0.585,-0.256 1.311,-0.037 1.675,0.493 1.126,0.816 0.922,2.225 0.801,3.065 l -0.017,0.133 c -0.018,0.084 -0.027,0.164 -0.031,0.245 -0.013,0.216 -0.004,0.588 0.238,0.698 0.23,0 0.589,-0.27 0.81,-0.6 0.164,-0.245 0.264,-0.635 0.376,-1.094 0.074,-0.341 0.156,-0.666 0.269,-1.01 0.666,-1.864 1.679,-2.257 2.411,-2.257 0.246,0 0.489,0.043 0.74,0.128 1.705,0.565 1.653,2.376 1.632,3.159 l -0.005,0.165 c -0.017,0.556 0.122,1.073 0.394,1.459 0.177,0.242 0.268,0.242 0.342,0.242 0.61,-0.065 1.757,-1.192 2.151,-2.116 0.156,-0.364 0.286,-0.788 0.385,-1.297 0.048,-0.215 0.083,-0.432 0.126,-0.651 l 0.03,-0.184 c 0.247,-1.325 0.524,-2.833 1.519,-4.195 0.568,-0.771 0.922,-1.438 1.078,-2.029 -0.865,0.469 -1.804,0.725 -2.679,0.725 -1.329,0 -2.428,-0.604 -3.095,-1.693 -0.238,-0.385 -0.35,-0.755 -0.367,-0.872 -0.485,-2.052 0.765,-3.625 2.402,-4.463 -0.438,0.014 -0.909,0.095 -1.368,0.169 l -0.766,0.117 c -1.675,0.223 -3.069,-0.224 -4.458,-0.679 -0.256,-0.083 -0.503,-0.165 -0.762,-0.243 -0.494,-0.147 -0.931,-0.238 -1.329,-0.275 -1.009,-0.08 -2.541,0.394 -2.878,0.886 -0.039,0.062 -0.092,0.136 0.047,0.42 0.212,0.426 0.602,0.792 1.108,1.041 l 0.108,0.058 c 0.641,0.315 2.338,1.152 2.035,2.94 -0.117,0.689 -0.589,1.849 -2.442,1.849 -0.29,0 -0.606,-0.03 -0.948,-0.086 -0.337,-0.06 -0.675,-0.14 -1.03,-0.239 -0.363,-0.099 -0.709,-0.189 -0.995,-0.189 l -0.126,0.003 c -0.428,0.04 -0.939,0.285 -0.922,0.54 0,0.16 0.364,0.356 0.511,0.428 0.1,0.047 0.23,0.093 0.381,0.15 0.796,0.294 2.126,0.788 2.294,2.176 0.238,1.916 -1.662,2.548 -2.415,2.796 -0.121,0.037 -0.229,0.077 -0.32,0.116 -0.624,0.268 -1.715,0.984 -1.36,1.877 0.451,0.563 1.584,0.116 2.247,-0.408 0.06,-0.051 0.126,-0.117 0.281,-0.263 0.355,-0.329 0.939,-0.869 1.671,-1.083 0.074,-0.059 0.152,-0.115 0.251,-0.152 m -12.994,12.188 c 1.268,0.591 1.325,2.018 1.355,2.942 0.004,0.123 0.009,0.236 0.017,0.32 0.031,0.216 0.1,0.581 0.316,0.645 0.221,0 0.567,-0.348 0.736,-0.729 0.13,-0.293 0.147,-0.727 0.173,-1.145 0.017,-0.344 0.039,-0.694 0.091,-1.039 0.385,-2.333 1.636,-2.681 2.35,-2.681 0.135,0 0.265,0.008 0.381,0.029 1.779,0.258 2.043,2.05 2.16,2.812 l 0.026,0.176 c 0.074,0.543 0.303,1.028 0.641,1.363 0.125,0.121 0.242,0.197 0.376,0.177 0.598,-0.168 1.528,-1.478 1.745,-2.464 0.099,-0.4 0.143,-0.834 0.155,-1.338 l 0.013,-0.848 c 0,-1.355 0.005,-2.887 0.749,-4.4 0.1,-0.202 0.208,-0.393 0.312,-0.593 l 0.095,-0.195 c 0.273,-0.498 0.533,-0.984 0.684,-1.454 -1.004,0.758 -2.168,1.192 -3.229,1.192 -1.112,0 -2.06,-0.456 -2.757,-1.32 -0.312,-0.387 -0.45,-0.744 -0.48,-0.815 -0.719,-1.942 0.272,-3.629 1.718,-4.667 -0.515,0.073 -1.056,0.268 -1.623,0.476 -0.295,0.109 -0.58,0.212 -0.862,0.297 -0.684,0.227 -1.402,0.333 -2.19,0.333 -0.801,0 -1.58,-0.109 -2.263,-0.21 l -0.845,-0.105 c -0.506,-0.059 -0.937,-0.079 -1.348,-0.038 -1,0.082 -2.43,0.821 -2.688,1.392 -0.024,0.047 -0.063,0.13 0.126,0.392 0.281,0.373 0.729,0.669 1.255,0.824 l 0.136,0.041 c 0.745,0.218 2.498,0.723 2.519,2.541 0.009,0.69 -0.277,2.297 -3.015,2.327 h -0.123 c -0.281,0 -0.573,-0.021 -0.944,-0.054 -0.441,-0.033 -0.88,-0.052 -1.14,0.012 -0.411,0.115 -0.868,0.444 -0.816,0.689 0.033,0.161 0.392,0.284 0.585,0.341 0.077,0.02 0.179,0.037 0.38,0.075 0.786,0.138 2.251,0.391 2.667,1.747 0.567,1.837 -1.193,2.791 -1.933,3.202 -0.089,0.048 -0.171,0.089 -0.251,0.142 -0.017,0.014 -1.627,1.078 -1.013,2.086 0.572,0.489 1.585,-0.164 2.132,-0.789 0.065,-0.082 0.136,-0.169 0.242,-0.303 0.39,-0.522 1.206,-1.612 2.42,-1.612 0.32,0 0.649,0.075 0.965,0.226 m -13.933,13.402 c 0.249,0 0.517,0.047 0.775,0.141 1.32,0.463 1.523,1.883 1.653,2.833 0.013,0.097 0.028,0.188 0.05,0.274 0.086,0.37 0.193,0.576 0.359,0.617 0.215,0 0.539,-0.391 0.671,-0.809 0.098,-0.292 0.078,-0.71 0.056,-1.152 -0.017,-0.347 -0.03,-0.693 -0.013,-1.041 0.167,-2.637 1.667,-2.923 2.307,-2.923 l 0.141,0.003 c 1.808,0.082 2.26,1.901 2.426,2.575 l 0.052,0.18 c 0.132,0.537 0.407,0.991 0.777,1.286 0.184,0.147 0.279,0.166 0.394,0.145 0.571,-0.233 1.363,-1.634 1.491,-2.629 0.047,-0.39 0.052,-0.815 0.009,-1.349 l -0.07,-0.857 c -0.14,-1.405 -0.281,-2.86 0.297,-4.436 0.102,-0.277 0.217,-0.551 0.344,-0.839 0.253,-0.633 0.5,-1.239 0.569,-1.802 -1.043,1.141 -2.397,1.816 -3.644,1.816 -0.846,0 -1.61,-0.292 -2.277,-0.872 -0.227,-0.197 -0.428,-0.428 -0.619,-0.714 -1.065,-1.806 -0.359,-3.674 0.922,-4.956 -0.415,0.138 -0.846,0.348 -1.294,0.56 l -0.223,0.11 c -0.201,0.091 -0.4,0.19 -0.597,0.272 -1.201,0.534 -2.385,0.603 -3.275,0.603 -0.383,0 -0.759,-0.012 -1.149,-0.028 l -0.896,-0.025 c -0.504,0 -0.928,0.032 -1.298,0.1 -0.988,0.19 -2.338,1.068 -2.535,1.646 -0.017,0.058 -0.047,0.146 0.171,0.387 0.312,0.348 0.786,0.593 1.325,0.698 l 0.153,0.027 c 0.764,0.142 2.552,0.473 2.756,2.268 0.069,0.632 -0.094,1.192 -0.466,1.632 -0.461,0.536 -1.238,0.867 -2.298,0.983 -0.342,0.045 -0.697,0.058 -1.057,0.062 -0.434,0.004 -0.852,0.02 -1.14,0.128 -0.4,0.156 -0.825,0.532 -0.747,0.761 0.035,0.124 0.251,0.218 0.615,0.284 0.091,0.016 0.205,0.024 0.398,0.039 0.851,0.068 2.268,0.173 2.82,1.461 0.747,1.765 -0.842,2.861 -1.608,3.384 -0.076,0.057 -0.149,0.105 -0.225,0.169 -0.53,0.425 -1.385,1.419 -0.798,2.178 0.614,0.437 1.54,-0.305 2.049,-1.013 0.06,-0.085 0.126,-0.193 0.192,-0.307 0.36,-0.605 1.115,-1.87 2.457,-1.87 m -8.685,18.151 c 0.026,0.106 0.054,0.2 0.084,0.28 0.137,0.352 0.267,0.54 0.407,0.555 0.247,0 0.518,-0.469 0.593,-0.884 0.052,-0.317 -0.026,-0.747 -0.102,-1.157 -0.064,-0.338 -0.123,-0.678 -0.153,-1.026 -0.201,-2.73 1.35,-3.164 2.021,-3.222 1.807,-0.193 2.485,1.527 2.768,2.231 l 0.063,0.154 c 0.21,0.516 0.547,0.936 0.95,1.175 0.175,0.104 0.273,0.117 0.405,0.089 0.535,-0.312 1.132,-1.803 1.119,-2.8 -0.007,-0.41 -0.059,-0.847 -0.162,-1.334 l -0.195,-0.829 c -0.316,-1.311 -0.671,-2.796 -0.305,-4.456 l 0.209,-0.857 c 0.176,-0.664 0.36,-1.347 0.33,-1.954 -1,1.234 -2.364,1.988 -3.637,1.988 -0.709,0 -1.38,-0.222 -2.003,-0.657 -0.453,-0.322 -0.676,-0.652 -0.676,-0.652 -1.084,-1.462 -0.824,-3.138 0.026,-4.477 -0.363,0.186 -0.738,0.434 -1.119,0.69 -0.257,0.169 -0.512,0.335 -0.764,0.489 -1.437,0.887 -2.969,1.039 -4.319,1.173 -0.275,0.026 -0.552,0.059 -0.825,0.087 -0.517,0.064 -0.95,0.158 -1.325,0.283 -0.949,0.317 -2.17,1.366 -2.278,1.981 -0.014,0.062 -0.033,0.149 0.218,0.352 0.351,0.297 0.855,0.482 1.407,0.513 l 0.145,0.008 c 0.777,0.033 2.601,0.117 3.049,1.874 0.163,0.671 0.254,2.302 -2.391,2.968 -0.334,0.089 -0.68,0.143 -1.03,0.196 -0.431,0.07 -0.842,0.132 -1.119,0.285 -0.377,0.207 -0.745,0.639 -0.636,0.859 0.071,0.14 0.435,0.177 0.649,0.189 0.11,0 0.247,-0.005 0.392,-0.016 0.201,-0.011 0.424,-0.023 0.662,-0.023 0.415,0 1.679,0 2.337,1.086 0.987,1.649 -0.496,2.998 -1.067,3.514 -0.108,0.089 -0.201,0.18 -0.27,0.245 -0.457,0.498 -1.171,1.601 -0.492,2.272 0.728,0.372 1.548,-0.618 1.894,-1.284 0.039,-0.068 0.071,-0.153 0.145,-0.329 0.132,-0.304 0.294,-0.659 0.513,-0.998 0.026,-0.367 0.184,-0.698 0.444,-0.917 0.231,-0.207 0.517,-0.33 0.911,-0.354 0.149,0 0.299,0.028 0.444,0.073 0.209,-0.016 0.448,-0.006 0.662,0.044 1.372,0.273 1.763,1.654 2.021,2.573 m -10.315,15.809 c 0.044,0.138 0.085,0.255 0.128,0.347 0.162,0.344 0.307,0.521 0.433,0.528 0.251,0 0.496,-0.496 0.541,-0.931 0.03,-0.312 -0.076,-0.715 -0.208,-1.236 -0.077,-0.305 -0.158,-0.609 -0.201,-0.926 -0.394,-2.705 1.123,-3.251 1.79,-3.351 1.764,-0.302 2.584,1.347 2.921,2.031 l 0.07,0.145 c 0.246,0.5 0.61,0.893 1.026,1.106 0.171,0.086 0.264,0.098 0.417,0.059 0.509,-0.347 1,-1.874 0.911,-2.874 -0.034,-0.41 -0.117,-0.84 -0.257,-1.326 -0.08,-0.274 -0.167,-0.541 -0.251,-0.811 -0.424,-1.353 -0.864,-2.753 -0.617,-4.426 0.03,-0.192 0.065,-0.394 0.104,-0.595 l 0.047,-0.277 c 0.076,-0.396 0.145,-0.783 0.182,-1.153 -0.794,1.046 -1.973,1.934 -3.404,1.934 -0.548,0 -1.093,-0.134 -1.614,-0.404 -0.403,-0.21 -0.671,-0.457 -0.773,-0.561 -1.6,-1.649 -1.147,-3.865 0.041,-5.484 -0.628,0.173 -1.225,0.632 -1.855,1.123 -0.242,0.188 -0.487,0.375 -0.729,0.543 -1.368,0.983 -2.811,1.23 -4.218,1.478 l -0.816,0.143 c -0.509,0.101 -0.939,0.224 -1.307,0.373 -0.926,0.387 -2.067,1.526 -2.14,2.131 -0.005,0.065 -0.018,0.154 0.24,0.346 0.37,0.262 0.869,0.412 1.413,0.412 v 0.468 l 0.039,-0.47 0.491,-0.009 c 1.509,0 2.456,0.559 2.816,1.655 0.192,0.581 0.162,1.148 -0.083,1.637 -0.328,0.649 -1.032,1.155 -2.079,1.498 -0.329,0.114 -0.671,0.194 -1.061,0.283 -0.409,0.095 -0.798,0.184 -1.054,0.355 -0.359,0.229 -0.697,0.688 -0.582,0.894 0.026,0.041 0.091,0.152 0.658,0.152 h 0.004 c 0.1,-0.007 0.223,-0.025 0.394,-0.041 0.303,-0.043 0.658,-0.09 1.021,-0.09 0.927,0 1.615,0.314 2.05,0.938 1.1,1.584 -0.285,3.03 -0.854,3.624 -0.076,0.078 -0.15,0.16 -0.213,0.228 -0.42,0.526 -1.052,1.672 -0.398,2.256 l 0.061,0.053 0.013,-0.01 c 0.712,0.302 1.426,-0.635 1.746,-1.317 l 0.048,-0.104 c 0.035,-0.071 0.06,-0.153 0.123,-0.335 0.24,-0.696 0.948,-2.614 2.812,-2.361 1.385,0.18 1.867,1.517 2.174,2.352 m -7.565,16.806 c 0.012,-0.312 -0.117,-0.708 -0.258,-1.131 -0.11,-0.323 -0.221,-0.652 -0.299,-0.994 -0.575,-2.678 0.903,-3.325 1.56,-3.477 0.184,-0.043 0.375,-0.066 0.554,-0.066 1.407,0 2.171,1.328 2.496,1.895 l 0.082,0.143 c 0.282,0.485 0.675,0.853 1.102,1.032 0.294,0.128 0.32,0.108 0.415,0.028 0.492,-0.376 0.874,-1.937 0.717,-2.924 -0.063,-0.418 -0.176,-0.841 -0.351,-1.309 -0.097,-0.264 -0.199,-0.527 -0.307,-0.8 -0.513,-1.321 -1.043,-2.681 -0.914,-4.366 l 0.093,-0.887 c 0.096,-0.825 0.184,-1.61 -0.017,-2.242 -0.679,1.385 -2.054,2.894 -3.895,2.894 -0.47,0 -0.942,-0.1 -1.403,-0.298 -0.439,-0.19 -0.738,-0.434 -0.816,-0.508 -1.396,-1.241 -1.448,-2.988 -0.842,-4.501 -0.246,0.197 -0.495,0.418 -0.746,0.641 l -0.122,0.108 c -0.19,0.162 -0.374,0.326 -0.562,0.48 -1.312,1.082 -2.803,1.441 -4.11,1.757 l -0.812,0.204 c -0.495,0.132 -0.91,0.284 -1.274,0.461 -0.896,0.451 -1.952,1.66 -1.982,2.272 -0.005,0.072 -0.005,0.156 0.257,0.327 0.342,0.21 0.773,0.322 1.238,0.322 0.078,0 0.158,-0.002 0.24,-0.01 l 0.145,-0.013 c 0.201,-0.018 0.466,-0.044 0.746,-0.044 1.28,0 2.126,0.498 2.522,1.474 0.258,0.641 0.586,2.246 -1.944,3.275 -0.316,0.135 -0.653,0.238 -1.047,0.355 -0.4,0.123 -0.777,0.241 -1.017,0.424 -0.342,0.253 -0.649,0.734 -0.511,0.944 0.024,0.033 0.076,0.108 0.413,0.108 0.078,0 0.167,-0.007 0.245,-0.013 0.089,-0.011 0.199,-0.035 0.392,-0.068 0.338,-0.07 0.803,-0.166 1.281,-0.166 0.788,0 1.411,0.268 1.837,0.802 1.202,1.497 -0.067,3.031 -0.61,3.684 -0.065,0.078 -0.132,0.154 -0.184,0.237 -0.392,0.549 -0.943,1.737 -0.171,2.306 0.762,0.269 1.437,-0.808 1.688,-1.528 0.039,-0.099 0.074,-0.212 0.106,-0.353 0.189,-0.694 0.689,-2.549 2.47,-2.549 0.056,0 0.117,0.002 0.175,0.006 1.407,0.087 1.978,1.408 2.354,2.276 0.044,0.097 0.083,0.181 0.12,0.255 0.175,0.311 0.346,0.504 0.463,0.504 0.26,-0.014 0.469,-0.52 0.483,-0.967 m -6.004,17.35 c -0.031,-0.3 -0.219,-0.665 -0.431,-1.071 l -0.052,-0.11 c -0.14,-0.272 -0.277,-0.543 -0.385,-0.826 -0.974,-2.552 0.385,-3.42 1.013,-3.671 0.285,-0.12 0.573,-0.181 0.863,-0.181 1.21,0 2.026,1.028 2.418,1.516 l 0.108,0.133 c 0.35,0.435 0.798,0.739 1.255,0.855 0.236,0.059 0.338,0.041 0.411,-0.038 0.427,-0.446 0.563,-2.046 0.26,-3.009 -0.119,-0.376 -0.294,-0.78 -0.547,-1.231 -0.132,-0.247 -0.277,-0.488 -0.422,-0.741 -0.71,-1.225 -1.444,-2.495 -1.565,-4.174 -0.022,-0.293 -0.037,-0.585 -0.05,-0.898 -0.035,-0.866 -0.065,-1.678 -0.394,-2.268 -0.013,0.045 -0.03,0.09 -0.043,0.133 l -0.076,0.206 h -0.009 c -0.599,1.523 -1.956,3.2 -3.927,3.2 -0.397,0 -0.799,-0.07 -1.199,-0.207 -0.399,-0.142 -0.693,-0.334 -0.843,-0.45 -1.32,-1.028 -1.594,-2.543 -1.274,-3.968 -0.165,0.181 -0.32,0.374 -0.474,0.562 -0.192,0.236 -0.392,0.47 -0.589,0.69 -1.118,1.259 -2.482,1.823 -3.798,2.369 -0.257,0.105 -0.513,0.212 -0.766,0.321 -0.483,0.212 -0.874,0.43 -1.19,0.65 -0.821,0.579 -1.68,1.934 -1.613,2.551 0.009,0.066 0.018,0.151 0.305,0.277 0.256,0.108 0.55,0.165 0.858,0.165 0.214,0 0.432,-0.029 0.638,-0.074 l 0.141,-0.041 c 0.329,-0.083 0.829,-0.21 1.37,-0.21 0.928,0 1.653,0.389 2.094,1.125 0.351,0.595 0.918,2.132 -1.424,3.537 -0.294,0.177 -0.61,0.329 -0.943,0.49 -0.389,0.187 -0.764,0.366 -0.978,0.589 -0.303,0.31 -0.531,0.828 -0.368,1.005 0.073,0.074 0.275,0.106 0.683,-0.002 0.107,-0.028 0.232,-0.078 0.364,-0.126 0.422,-0.156 1.058,-0.396 1.71,-0.396 0.576,0 1.071,0.185 1.469,0.553 1.431,1.304 0.392,3.018 -0.038,3.728 -0.057,0.093 -0.111,0.182 -0.15,0.262 -0.298,0.61 -0.662,1.87 0.102,2.291 l 0.069,0.037 0.009,-0.017 c 0.811,0.145 1.294,-0.996 1.443,-1.777 0.018,-0.076 0.026,-0.167 0.048,-0.354 0.084,-0.751 0.303,-2.75 2.22,-2.917 1.398,-0.133 2.175,1.088 2.632,1.806 l 0.074,0.117 c 0.047,0.079 0.093,0.145 0.132,0.198 0.266,0.339 0.465,0.451 0.534,0.424 0.251,-0.046 0.381,-0.591 0.325,-1.033 m -3.913,12.322 c 1.123,0 1.939,0.876 2.378,1.347 l 0.118,0.128 c 0.378,0.407 0.839,0.677 1.302,0.759 0.26,0.048 0.355,0.004 0.414,-0.063 0.393,-0.48 0.419,-2.085 0.047,-3.021 -0.145,-0.37 -0.35,-0.759 -0.632,-1.189 -0.153,-0.241 -0.311,-0.475 -0.469,-0.705 -0.758,-1.112 -1.617,-2.372 -1.86,-4.052 -0.043,-0.296 -0.077,-0.59 -0.112,-0.934 -0.097,-0.835 -0.186,-1.63 -0.545,-2.191 -0.451,2.166 -2.078,4.335 -4.641,3.855 -0.469,-0.088 -0.802,-0.259 -0.897,-0.31 -1.645,-0.918 -2.081,-2.616 -1.812,-4.232 -0.184,0.236 -0.363,0.486 -0.547,0.745 -0.167,0.234 -0.338,0.464 -0.511,0.691 -1.035,1.339 -2.407,2.02 -3.697,2.663 -0.223,0.112 -0.448,0.223 -0.667,0.333 -0.452,0.24 -0.824,0.485 -1.144,0.738 -0.777,0.639 -1.535,2.052 -1.424,2.664 0.008,0.054 0.021,0.144 0.32,0.249 0.21,0.071 0.437,0.111 0.684,0.111 0.271,0 0.552,-0.047 0.82,-0.127 l 0.135,-0.048 c 0.356,-0.117 0.947,-0.315 1.575,-0.315 0.82,0 1.487,0.34 1.939,0.986 0.394,0.564 1.069,2.055 -1.171,3.625 -0.286,0.204 -0.589,0.377 -0.896,0.546 -0.381,0.219 -0.74,0.423 -0.948,0.664 -0.275,0.329 -0.467,0.863 -0.288,1.035 0.066,0.059 0.109,0.137 0.684,-0.058 0.078,-0.025 0.171,-0.072 0.346,-0.148 0.488,-0.222 1.15,-0.523 1.86,-0.523 0.5,0 0.947,0.153 1.324,0.451 1.504,1.199 0.602,2.982 0.26,3.656 l -0.059,0.113 c -0.043,0.08 -0.078,0.154 -0.108,0.228 -0.255,0.624 -0.532,1.897 0.258,2.274 l 0.184,0.022 c 0.725,0 1.127,-1.133 1.211,-1.855 l 0.009,-0.061 c 0.009,-0.094 0.009,-0.201 0.013,-0.322 0.035,-0.753 0.123,-2.762 2.017,-3.059 1.385,-0.224 2.247,0.938 2.751,1.619 l 0.086,0.116 c 0.051,0.067 0.089,0.125 0.141,0.182 0.277,0.309 0.444,0.404 0.561,0.382 0.247,-0.064 0.337,-0.614 0.255,-1.047 -0.052,-0.288 -0.255,-0.627 -0.5,-1.039 -0.18,-0.292 -0.359,-0.594 -0.508,-0.911 -1.119,-2.385 -0.009,-3.363 0.749,-3.731 0.324,-0.159 0.657,-0.241 0.995,-0.241 m -18.077,17.452 c 0.142,0.033 0.294,0.05 0.454,0.05 0.338,0 0.699,-0.079 1.047,-0.229 l 0.122,-0.049 c 0.407,-0.181 1.088,-0.488 1.824,-0.488 0.697,0 1.285,0.271 1.742,0.805 0.446,0.522 1.257,1.944 -0.807,3.721 -0.238,0.205 -0.491,0.392 -0.837,0.64 -0.321,0.224 -0.684,0.477 -0.87,0.752 -0.245,0.352 -0.386,0.906 -0.198,1.05 0.098,0.07 0.089,0.151 0.689,-0.125 0.097,-0.039 0.196,-0.106 0.324,-0.175 0.492,-0.286 1.234,-0.723 2.037,-0.723 0.406,0 0.783,0.112 1.125,0.329 1.627,1.044 0.901,2.916 0.61,3.643 -0.047,0.123 -0.091,0.238 -0.123,0.327 -0.193,0.649 -0.333,1.952 0.593,2.248 0.876,0 1.093,-1.428 1.102,-1.989 0.004,-0.089 0,-0.192 -0.013,-0.365 -0.046,-0.755 -0.169,-2.766 1.701,-3.252 0.179,-0.049 0.355,-0.075 0.534,-0.075 1.089,0 1.885,0.885 2.394,1.449 0.08,0.087 0.145,0.165 0.225,0.235 0.359,0.331 0.526,0.335 0.591,0.327 0.238,-0.091 0.277,-0.646 0.154,-1.067 -0.091,-0.299 -0.343,-0.634 -0.604,-0.985 -0.212,-0.279 -0.418,-0.555 -0.597,-0.855 -1.399,-2.348 -0.206,-3.432 0.367,-3.787 0.373,-0.234 0.773,-0.353 1.18,-0.353 1.037,0 1.852,0.723 2.294,1.116 l 0.123,0.109 c 0.422,0.372 0.909,0.594 1.487,0.633 0.223,0 0.259,-0.055 0.294,-0.105 0.338,-0.516 0.206,-2.121 -0.255,-3.012 -0.184,-0.36 -0.424,-0.723 -0.749,-1.124 -0.175,-0.22 -0.355,-0.437 -0.537,-0.651 -0.867,-1.039 -1.85,-2.214 -2.257,-3.849 -0.052,-0.208 -0.101,-0.416 -0.145,-0.626 l -0.056,-0.241 c -0.171,-0.825 -0.334,-1.598 -0.738,-2.139 -0.316,2.139 -1.79,4.381 -4.342,4.091 -0.469,-0.056 -0.816,-0.201 -0.921,-0.247 -1.617,-0.76 -2.202,-2.301 -2.117,-3.865 -0.162,0.251 -0.316,0.521 -0.474,0.792 l -0.072,0.119 c -0.129,0.225 -0.257,0.445 -0.389,0.661 -0.889,1.425 -2.132,2.209 -3.337,2.973 l -0.706,0.448 c -0.437,0.292 -0.785,0.572 -1.065,0.847 -0.71,0.714 -1.326,2.194 -1.157,2.783 0.019,0.067 0.043,0.152 0.353,0.228 M 480.557,202.404 c 0.575,-0.185 1.199,-0.288 1.83,-0.374 2.974,0.949 5.722,1.934 8.242,2.937 l -0.156,0.27 c -0.114,0.178 -2.709,4.43 -7.194,5.864 -1.484,0.477 -3.19,0.631 -4.995,0.443 l -0.441,-0.048 0.19,0.403 c 0.83,1.705 1.281,3.419 1.346,5.096 0.173,4.634 -2.688,8.449 -3.013,8.869 l -1.095,1.37 -1.19,-1.294 c -0.363,-0.4 -3.501,-4.005 -3.679,-8.624 -0.112,-2.961 1.009,-5.59 1.97,-7.278 l 0.125,-0.223 -0.047,-0.029 0.921,-1.524 c 0.277,-0.453 2.827,-4.468 7.186,-5.858 m -2.914,5.946 c 1.689,0.32 3.316,0.255 4.711,-0.18 1.388,-0.445 2.721,-1.317 3.959,-2.598 l 0.326,-0.333 -0.455,-0.084 c -0.62,-0.117 -1.351,-0.179 -2.052,-0.179 -0.991,0 -1.913,0.128 -2.653,0.365 -1.385,0.437 -2.719,1.312 -3.965,2.59 l -0.321,0.333 z m -2.939,3.772 -0.203,0.435 c -0.524,1.103 -1.13,2.804 -1.069,4.644 0.056,1.479 0.532,3.015 1.416,4.563 l 0.233,0.418 0.208,-0.434 c 0.757,-1.619 1.107,-3.179 1.047,-4.646 -0.047,-1.465 -0.52,-2.999 -1.393,-4.563 z m -28.268,-17.781 c 0,0 3.22,0.404 4.619,0.707 1.06,1.569 2.605,4.653 2.904,6.303 0.822,4.55 -1.468,8.746 -1.732,9.211 l -0.887,1.503 -1.36,-1.106 c -0.416,-0.344 -4.029,-3.442 -4.864,-8.018 -0.533,-2.915 0.202,-5.676 0.922,-7.482 l 0.09,-0.237 -0.056,-0.025 z m 1.666,8.057 c 0.264,1.455 0.948,2.907 2.043,4.319 l 0.294,0.38 0.139,-0.458 c 0.524,-1.716 0.649,-3.313 0.381,-4.749 -0.256,-1.442 -0.939,-2.896 -2.029,-4.32 l -0.296,-0.385 -0.138,0.462 c -0.364,1.171 -0.719,2.949 -0.394,4.751 m -13.106,-9.14 c 1.285,0.083 2.57,0.179 3.852,0.29 0.532,0.971 0.944,1.964 1.177,2.974 1.061,4.498 -1.004,8.815 -1.242,9.293 l -0.814,1.547 -1.414,-1.032 c -0.434,-0.325 -4.203,-3.251 -5.273,-7.752 -0.468,-1.989 -0.325,-3.92 0.004,-5.536 1.027,0.047 2.048,0.104 3.069,0.169 -0.291,1.192 -0.532,2.929 -0.121,4.664 0.338,1.443 1.099,2.86 2.268,4.209 l 0.316,0.364 0.112,-0.469 c 0.429,-1.737 0.472,-3.339 0.131,-4.762 -0.312,-1.338 -1.018,-2.667 -2.065,-3.959 m 108.768,144.939 c 2.381,-1.759 5.16,-2.274 7.073,-2.392 l 0.265,-0.017 -0.01,-0.059 2.008,-0.081 c 1.191,0 5.33,0.202 8.536,2.807 2.009,1.627 3.186,3.832 3.818,5.398 0.61,1.517 0.831,2.703 0.835,2.713 l 0.303,1.732 -2.022,0.091 c -1.189,0 -5.327,-0.203 -8.539,-2.807 -1.541,-1.256 -2.558,-2.842 -3.142,-3.957 l -0.207,-0.404 -0.231,0.398 c -0.917,1.623 -2.09,2.986 -3.396,3.95 -2.81,2.076 -6.169,2.413 -7.922,2.43 h -0.165 c -0.42,0 -0.71,-0.02 -0.822,-0.025 l -1.762,-0.167 0.398,-1.748 c 0.204,-0.85 1.433,-5.239 4.982,-7.862 m 11.384,1.116 c 0.698,1.621 1.659,2.956 2.779,3.858 1.134,0.925 2.589,1.562 4.319,1.9 l 0.459,0.086 -0.185,-0.428 c -0.481,-1.135 -1.36,-2.731 -2.775,-3.875 -1.134,-0.922 -2.593,-1.559 -4.32,-1.885 l -0.467,-0.09 z m -12.276,5.464 c 1.749,-0.261 3.23,-0.831 4.394,-1.693 1.173,-0.863 2.164,-2.125 2.939,-3.746 l 0.208,-0.424 -0.468,0.067 c -1.744,0.264 -3.216,0.833 -4.388,1.7 -1.164,0.86 -2.161,2.117 -2.948,3.74 l -0.205,0.424 z M 469.177,199.219 c 0.368,-0.156 0.731,-0.349 1.082,-0.57 1.273,0.306 2.514,0.626 3.74,0.947 -0.974,0.94 -2.177,1.845 -3.64,2.465 -1.394,0.58 -2.978,0.878 -4.709,0.878 l -0.679,-0.008 0.228,0.386 c 0.978,1.618 1.584,3.285 1.801,4.951 0.559,4.466 -1.753,8.369 -2.225,9.106 l -0.968,1.455 -1.3,-1.176 c -0.155,-0.147 -3.821,-3.545 -4.424,-8.269 -0.376,-2.944 0.507,-5.659 1.315,-7.423 l 0.105,-0.233 -0.052,-0.023 0.779,-1.601 c 0.133,-0.262 0.883,-1.668 2.215,-3.172 1.222,0.241 2.425,0.49 3.616,0.751 -0.602,0.477 -1.178,1.055 -1.727,1.724 l -0.29,0.36 0.458,0.045 c 1.706,0.173 3.32,-0.031 4.675,-0.593 m -6.999,5.006 -0.278,-0.399 -0.159,0.452 c -0.425,1.155 -0.88,2.91 -0.649,4.723 0.185,1.468 0.787,2.954 1.808,4.421 l 0.274,0.396 0.169,-0.452 c 0.61,-1.685 0.822,-3.274 0.632,-4.72 -0.183,-1.454 -0.787,-2.946 -1.797,-4.421 m 83.258,62.731 0.986,1.434 -1.531,0.808 c -0.036,0.021 -2.841,1.527 -6.355,1.561 l -0.122,0.002 c -0.935,0 -1.839,-0.106 -2.687,-0.316 -1.52,-0.377 -3.079,-1.149 -4.493,-2.236 l -0.36,-0.274 -0.034,0.452 c -0.169,1.893 -0.654,3.591 -1.455,5.045 -2.35,4.326 -7.042,5.986 -7.089,5.999 l -1.642,0.608 -0.367,-1.731 c -0.107,-0.525 -0.969,-5.238 1.251,-9.291 1.415,-2.596 3.705,-4.25 5.372,-5.184 l 0.233,-0.132 -0.026,-0.043 1.571,-0.834 c 0.294,-0.153 3.022,-1.522 6.346,-1.555 l 0.12,-0.002 c 0.923,0 1.828,0.105 2.685,0.319 2.497,0.615 4.484,2.111 5.709,3.259 1.065,0.994 1.709,1.867 1.888,2.111 m -17.968,0.123 c -1.472,0.984 -2.572,2.13 -3.277,3.415 -0.705,1.299 -1.082,2.866 -1.121,4.652 l -0.009,0.48 0.398,-0.267 c 1.477,-0.982 2.572,-2.129 3.273,-3.415 0.702,-1.281 1.079,-2.842 1.125,-4.651 l 0.013,-0.48 z m 13.79,-0.183 c -0.904,-0.821 -2.363,-1.89 -4.133,-2.323 -0.562,-0.137 -1.208,-0.212 -1.909,-0.212 -0.931,0 -1.922,0.125 -2.801,0.353 l -0.446,0.115 0.342,0.31 c 1.312,1.187 2.701,1.966 4.134,2.323 1.316,0.318 3.173,0.253 4.709,-0.145 l 0.45,-0.117 z m -1.403,24.669 0.256,-0.096 -0.026,-0.047 1.649,-0.582 c 0.026,-0.011 1.931,-0.712 4.545,-0.737 l 0.164,-0.002 c 1.65,0 3.173,0.28 4.528,0.837 2.394,0.973 4.147,2.745 5.19,4.062 0.965,1.209 1.502,2.228 1.549,2.337 l 0.806,1.587 -1.645,0.579 c -0.342,0.122 -2.185,0.718 -4.549,0.741 l -0.138,0.002 c -1.659,0 -3.191,-0.286 -4.559,-0.844 -1.454,-0.594 -2.844,-1.563 -4.125,-2.87 l -0.32,-0.327 -0.1,0.442 c -0.434,1.848 -1.15,3.46 -2.146,4.788 -2.762,3.687 -7.368,4.794 -7.887,4.907 l -1.697,0.347 -0.116,-1.757 c -0.009,-0.208 -0.308,-5.199 2.549,-9.021 1.766,-2.356 4.276,-3.664 6.072,-4.346 m 5.143,2.082 c 1.125,1.353 2.424,2.355 3.761,2.9 1.333,0.547 2.956,0.74 4.679,0.551 l 0.462,-0.051 -0.3,-0.357 c -0.793,-0.948 -2.092,-2.219 -3.754,-2.898 -1,-0.409 -2.147,-0.619 -3.41,-0.619 -0.42,0 -0.845,0.024 -1.269,0.072 l -0.459,0.045 z m -10.207,8.831 c 1.593,-0.751 2.85,-1.73 3.736,-2.905 0.866,-1.169 1.459,-2.664 1.752,-4.448 l 0.078,-0.469 -0.427,0.207 c -1.589,0.751 -2.84,1.731 -3.723,2.908 -0.879,1.17 -1.477,2.666 -1.766,4.44 l -0.084,0.471 z m 7.177,21.335 c 2.255,-1.899 4.999,-2.589 6.908,-2.834 l 0.281,-0.035 -0.012,-0.047 1.914,-0.206 c 1.121,-0.069 5.31,-0.203 8.763,2.264 2.117,1.512 3.424,3.634 4.153,5.149 l 0.039,0.095 c 0.677,1.442 0.951,2.549 0.951,2.563 l 0.42,1.712 -1.935,0.203 c -0.216,0.017 -0.546,0.034 -0.957,0.034 -1.718,0 -5.016,-0.301 -7.817,-2.294 -1.619,-1.155 -2.737,-2.677 -3.389,-3.749 l -0.234,-0.391 -0.199,0.413 c -0.814,1.664 -1.904,3.104 -3.146,4.149 -2.658,2.235 -5.987,2.789 -7.744,2.919 -0.39,0.031 -0.693,0.035 -0.866,0.035 l -1.891,-0.05 0.272,-1.773 c 0.156,-0.86 1.117,-5.323 4.489,-8.157 m 11.427,0.399 c 0.81,1.592 1.828,2.835 3.017,3.688 1.193,0.844 2.679,1.387 4.428,1.621 l 0.467,0.06 -0.211,-0.419 c -0.555,-1.101 -1.53,-2.636 -3.013,-3.695 -1.199,-0.85 -2.688,-1.391 -4.433,-1.615 l -0.466,-0.06 z m -11.909,6.225 c 1.715,-0.36 3.153,-1.02 4.284,-1.957 1.102,-0.939 2.015,-2.259 2.699,-3.93 l 0.177,-0.437 -0.458,0.099 c -1.717,0.364 -3.161,1.026 -4.272,1.969 -1.117,0.936 -2.03,2.257 -2.71,3.921 l -0.183,0.434 z m -7.638,-52.972 0.277,-0.132 -0.039,-0.052 1.566,-0.718 c 0.452,-0.199 2.844,-1.204 5.752,-1.234 h 0.127 c 1.155,0 2.272,0.156 3.311,0.468 2.463,0.742 4.372,2.337 5.541,3.552 l 0.151,0.165 c 1.039,1.105 1.611,2.022 1.614,2.031 l 0.931,1.491 -1.576,0.73 c -0.03,0.014 -2.562,1.208 -5.761,1.239 l -0.131,0.003 c -1.168,0 -2.288,-0.157 -3.323,-0.47 -1.515,-0.455 -2.986,-1.281 -4.371,-2.463 l -0.347,-0.296 -0.06,0.452 c -0.255,1.881 -0.826,3.551 -1.694,4.969 -2.522,4.125 -7.348,5.611 -7.396,5.62 l -1.671,0.522 -0.265,-1.725 c -0.016,-0.06 -0.851,-5.077 1.705,-9.235 1.551,-2.531 3.936,-4.069 5.659,-4.917 m 5.298,1.602 c 1.243,1.237 2.627,2.108 4.008,2.523 1.371,0.416 3.013,0.451 4.709,0.106 l 0.455,-0.094 -0.334,-0.328 c -0.869,-0.865 -2.268,-2.005 -4.007,-2.53 -0.689,-0.205 -1.534,-0.313 -2.446,-0.313 -0.761,0 -1.567,0.075 -2.26,0.215 l -0.455,0.09 z m -9.354,9.75 c 1.515,-0.901 2.675,-1.991 3.446,-3.245 0.766,-1.248 1.225,-2.798 1.346,-4.59 l 0.03,-0.474 -0.407,0.241 c -1.506,0.89 -2.662,1.984 -3.436,3.254 -0.771,1.256 -1.226,2.8 -1.355,4.584 l -0.035,0.473 z M 518.4,235.242 c 0.079,0 0.157,0.002 0.234,0.004 2.575,0.095 4.807,1.15 6.237,2.022 1.147,0.706 1.943,1.396 2.238,1.66 l 0.025,0.03 1.261,1.19 -1.352,1.113 c -0.41,0.328 -4.275,3.251 -8.717,3.094 -1.597,-0.051 -3.233,-0.476 -4.855,-1.258 l -0.408,-0.201 0.052,0.452 c 0.221,1.878 0.082,3.641 -0.403,5.24 -1.358,4.441 -5.312,7.058 -5.757,7.34 l -1.488,0.93 -0.711,-1.621 c -0.207,-0.489 -1.994,-4.898 -0.617,-9.36 0.912,-2.993 3.043,-5.152 4.232,-6.177 l 0.195,-0.169 -0.039,-0.043 1.38,-1.147 c 0.39,-0.31 3.952,-3.054 8.259,-3.097 z m -8.416,7.651 -0.086,-0.473 -0.337,0.343 c -1.238,1.256 -2.09,2.614 -2.523,4.029 -0.429,1.377 -0.49,3.021 -0.173,4.764 l 0.082,0.474 0.342,-0.344 c 1.246,-1.273 2.1,-2.622 2.524,-4.011 0.437,-1.412 0.494,-3.023 0.171,-4.782 m 3.541,-3.26 0.405,0.231 c 1.496,0.877 3.05,1.37 4.496,1.431 l 0.324,0.002 c 1.352,-0.015 2.788,-0.389 4.26,-1.114 l 0.415,-0.204 -0.402,-0.234 c -1.065,-0.616 -2.714,-1.367 -4.502,-1.424 -0.095,-0.002 -0.195,-0.004 -0.291,-0.004 -1.354,0 -2.791,0.372 -4.285,1.111 z m 21.487,11.175 c 1.277,1.018 2.03,1.925 2.035,1.936 l 1.125,1.348 -1.459,0.941 c -0.129,0.087 -3.328,2.121 -7.236,2.16 l -0.122,0.002 c -0.55,0 -1.113,-0.043 -1.671,-0.129 -1.567,-0.247 -3.134,-0.868 -4.666,-1.846 l -0.381,-0.242 v 0.453 c -0.004,1.899 -0.346,3.634 -1.017,5.156 -1.87,4.221 -6.106,6.354 -6.583,6.583 l -1.585,0.74 -0.511,-1.722 c -0.147,-0.51 -1.367,-5.135 0.481,-9.33 1.195,-2.71 3.353,-4.565 4.952,-5.639 l 0.237,-0.158 -0.038,-0.043 1.447,-0.928 c 0.039,-0.024 3.219,-2.125 7.253,-2.163 l 0.125,-0.003 c 0.573,0 1.125,0.043 1.65,0.129 2.522,0.388 4.636,1.714 5.964,2.755 m -15.469,3.316 -0.382,0.297 c -1.38,1.108 -2.386,2.347 -2.973,3.69 -0.736,1.679 -0.797,3.493 -0.719,4.718 l 0.027,0.477 0.376,-0.3 c 1.381,-1.106 2.38,-2.339 2.974,-3.675 0.592,-1.348 0.84,-2.94 0.722,-4.729 z m 7.916,-3.113 c -1.117,0 -2.411,0.227 -3.549,0.628 l -0.442,0.155 0.368,0.277 c 1.424,1.075 2.874,1.732 4.31,1.954 1.338,0.216 3.122,-0.002 4.68,-0.549 l 0.438,-0.154 -0.373,-0.28 c -0.978,-0.734 -2.519,-1.671 -4.302,-1.952 -0.355,-0.054 -0.732,-0.079 -1.13,-0.079 m -19.79,-27.904 0.104,-0.003 c 2.247,0 4.282,0.717 5.593,1.324 1.268,0.591 2.12,1.178 2.432,1.401 l 1.386,1.05 -1.207,1.261 c -0.373,0.379 -3.797,3.717 -8.312,4.091 -1.619,0.13 -3.207,-0.097 -4.974,-0.703 l -0.423,-0.147 0.104,0.439 c 0.428,1.851 0.483,3.619 0.173,5.253 -0.883,4.765 -4.736,7.834 -4.9,7.962 l -1.368,1.093 -0.87,-1.522 c -0.03,-0.049 -2.571,-4.456 -1.675,-9.237 0.545,-2.924 2.221,-5.225 3.538,-6.645 l 0.175,-0.194 -0.047,-0.042 1.221,-1.258 c 0.035,-0.041 3.471,-3.696 8.319,-4.09 0.251,-0.022 0.489,-0.031 0.731,-0.033 m -8.466,8.627 -0.135,-0.459 -0.293,0.378 c -1.091,1.388 -1.789,2.834 -2.06,4.294 -0.274,1.428 -0.156,3.031 0.359,4.757 l 0.134,0.466 0.299,-0.383 c 0.753,-0.961 1.722,-2.482 2.069,-4.284 0.263,-1.437 0.138,-3.084 -0.373,-4.769 m 3.156,-3.645 0.428,0.186 c 1.632,0.714 3.117,1.013 4.632,0.89 1.45,-0.122 2.938,-0.671 4.427,-1.635 l 0.39,-0.253 -0.423,-0.186 c -0.958,-0.414 -2.442,-0.912 -4.079,-0.912 -0.186,0 -0.367,0.006 -0.552,0.021 -1.806,0.15 -3.409,0.974 -4.429,1.638 z m -6,-16.21 0.114,-0.002 c 1.67,0 3.172,0.355 4.136,0.649 1.564,0.476 2.584,1.048 2.594,1.054 l 1.531,0.847 -1.034,1.422 c -0.315,0.426 -3.229,4.2 -7.695,5.203 -1.525,0.338 -3.237,0.338 -5.009,-0.012 l -0.437,-0.088 0.157,0.424 c 0.675,1.769 0.973,3.517 0.886,5.191 -0.229,4.437 -3.198,7.92 -3.788,8.572 l -1.214,1.261 -1.066,-1.392 c -0.329,-0.44 -3.141,-4.309 -2.9,-8.923 0.152,-2.958 1.503,-5.48 2.61,-7.072 l 0.156,-0.23 -0.048,-0.024 1.039,-1.422 c 0.13,-0.17 3.108,-4.177 7.683,-5.199 0.744,-0.16 1.515,-0.247 2.285,-0.259 m -8.782,9.856 -0.199,-0.437 -0.237,0.413 c -0.62,1.051 -1.377,2.69 -1.477,4.534 -0.078,1.475 0.26,3.045 0.996,4.67 l 0.199,0.44 0.243,-0.417 c 0.899,-1.542 1.393,-3.068 1.466,-4.537 0.075,-1.457 -0.268,-3.071 -0.991,-4.666 m 2.623,-4.057 0.446,0.128 c 1.67,0.469 3.29,0.551 4.702,0.234 1.427,-0.312 2.834,-1.063 4.175,-2.226 l 0.355,-0.3 -0.446,-0.128 c -0.909,-0.256 -2.034,-0.409 -3.012,-0.409 -0.615,0 -1.186,0.055 -1.688,0.17 -1.412,0.312 -2.818,1.06 -4.181,2.229 z m 48.245,92.044 c 2.026,-2.151 4.644,-3.159 6.489,-3.626 l 0.293,-0.072 -0.021,-0.048 1.692,-0.398 c 0.052,-0.013 1.186,-0.279 2.857,-0.298 l 0.151,-0.003 c 1.602,0 3.974,0.254 6.172,1.457 2.256,1.239 3.801,3.198 4.705,4.62 0.81,1.292 1.242,2.382 1.281,2.499 l 0.616,1.668 -1.701,0.4 c -0.291,0.063 -1.356,0.269 -2.836,0.284 l -0.157,0.002 c -1.604,0 -3.981,-0.251 -6.166,-1.443 -1.403,-0.771 -2.679,-1.892 -3.793,-3.325 l -0.281,-0.366 -0.155,0.435 c -0.614,1.777 -1.507,3.297 -2.646,4.513 -3.09,3.292 -7.518,3.895 -8.379,3.979 l -1.727,0.161 0.082,-1.751 c 0.009,-0.214 0.268,-5.224 3.524,-8.688 m 11.396,-0.975 c 0.979,1.491 2.126,2.604 3.425,3.306 1.566,0.869 3.358,1.065 4.574,1.078 l 0.473,0.008 -0.261,-0.395 c -0.679,-1.028 -1.825,-2.436 -3.423,-3.306 -1.584,-0.871 -3.368,-1.068 -4.58,-1.077 l -0.467,-0.002 z m -11.118,7.611 c 1.673,-0.567 3.024,-1.398 4.02,-2.464 1.251,-1.321 1.909,-3.022 2.246,-4.216 l 0.13,-0.452 -0.45,0.148 c -1.632,0.55 -3.026,1.405 -4.026,2.471 -1.004,1.068 -1.757,2.485 -2.237,4.211 l -0.131,0.457 z"
           inkscape:connector-curvature="0" /></g></g></g></svg>